<mxfile host="app.diagrams.net" modified="2020-12-18T06:30:13.644Z" agent="5.0 (Windows)" etag="0Ag7Bw4L6aaej0ZuiKDG" version="14.0.5" type="github">
  <diagram id="C5RBs43oDa-KdzZeNtuy" name="Page-1">
    <mxGraphModel dx="1477" dy="1571" grid="1" gridSize="10" guides="1" tooltips="1" connect="1" arrows="1" fold="1" page="1" pageScale="1" pageWidth="827" pageHeight="1169" math="0" shadow="0">
      <root>
        <mxCell id="WIyWlLk6GJQsqaUBKTNV-0" />
        <mxCell id="WIyWlLk6GJQsqaUBKTNV-1" parent="WIyWlLk6GJQsqaUBKTNV-0" />
        <mxCell id="WIyWlLk6GJQsqaUBKTNV-2" value="" style="rounded=0;html=1;jettySize=auto;orthogonalLoop=1;fontSize=11;endArrow=block;endFill=0;endSize=8;strokeWidth=1;shadow=0;labelBackgroundColor=none;edgeStyle=orthogonalEdgeStyle;" parent="WIyWlLk6GJQsqaUBKTNV-1" target="WIyWlLk6GJQsqaUBKTNV-6" edge="1">
          <mxGeometry relative="1" as="geometry">
            <mxPoint x="110" y="-370" as="sourcePoint" />
          </mxGeometry>
        </mxCell>
        <mxCell id="WIyWlLk6GJQsqaUBKTNV-4" value="成功" style="rounded=0;html=1;jettySize=auto;orthogonalLoop=1;fontSize=11;endArrow=block;endFill=0;endSize=8;strokeWidth=1;shadow=0;labelBackgroundColor=none;edgeStyle=orthogonalEdgeStyle;" parent="WIyWlLk6GJQsqaUBKTNV-1" source="WIyWlLk6GJQsqaUBKTNV-6" edge="1">
          <mxGeometry y="20" relative="1" as="geometry">
            <mxPoint as="offset" />
            <mxPoint x="110" y="-200" as="targetPoint" />
          </mxGeometry>
        </mxCell>
        <mxCell id="WIyWlLk6GJQsqaUBKTNV-5" value="失败" style="edgeStyle=orthogonalEdgeStyle;rounded=0;html=1;jettySize=auto;orthogonalLoop=1;fontSize=11;endArrow=block;endFill=0;endSize=8;strokeWidth=1;shadow=0;labelBackgroundColor=none;entryX=1;entryY=0.5;entryDx=0;entryDy=0;exitX=1;exitY=0.5;exitDx=0;exitDy=0;" parent="WIyWlLk6GJQsqaUBKTNV-1" source="WIyWlLk6GJQsqaUBKTNV-6" target="-vagqT4oPrXyImM88Zhv-7" edge="1">
          <mxGeometry y="20" relative="1" as="geometry">
            <mxPoint as="offset" />
            <mxPoint x="170" y="-390" as="targetPoint" />
            <Array as="points">
              <mxPoint x="190" y="-280" />
              <mxPoint x="190" y="-385" />
            </Array>
          </mxGeometry>
        </mxCell>
        <mxCell id="WIyWlLk6GJQsqaUBKTNV-6" value="验证用户名和密码" style="rhombus;whiteSpace=wrap;html=1;shadow=0;fontFamily=Helvetica;fontSize=12;align=center;strokeWidth=1;spacing=6;spacingTop=-4;" parent="WIyWlLk6GJQsqaUBKTNV-1" vertex="1">
          <mxGeometry x="55" y="-320" width="110" height="80" as="geometry" />
        </mxCell>
        <mxCell id="-vagqT4oPrXyImM88Zhv-8" value="" style="edgeStyle=orthogonalEdgeStyle;rounded=0;orthogonalLoop=1;jettySize=auto;html=1;" edge="1" parent="WIyWlLk6GJQsqaUBKTNV-1" source="-vagqT4oPrXyImM88Zhv-2" target="-vagqT4oPrXyImM88Zhv-7">
          <mxGeometry relative="1" as="geometry" />
        </mxCell>
        <mxCell id="-vagqT4oPrXyImM88Zhv-2" value="开始" style="strokeWidth=2;html=1;shape=mxgraph.flowchart.start_1;whiteSpace=wrap;" vertex="1" parent="WIyWlLk6GJQsqaUBKTNV-1">
          <mxGeometry x="60" y="-490" width="100" height="60" as="geometry" />
        </mxCell>
        <mxCell id="-vagqT4oPrXyImM88Zhv-5" value="" style="edgeStyle=orthogonalEdgeStyle;rounded=0;orthogonalLoop=1;jettySize=auto;html=1;" edge="1" parent="WIyWlLk6GJQsqaUBKTNV-1" source="-vagqT4oPrXyImM88Zhv-3" target="-vagqT4oPrXyImM88Zhv-4">
          <mxGeometry relative="1" as="geometry" />
        </mxCell>
        <mxCell id="-vagqT4oPrXyImM88Zhv-12" value="" style="edgeStyle=orthogonalEdgeStyle;rounded=0;orthogonalLoop=1;jettySize=auto;html=1;" edge="1" parent="WIyWlLk6GJQsqaUBKTNV-1" source="-vagqT4oPrXyImM88Zhv-3" target="-vagqT4oPrXyImM88Zhv-10">
          <mxGeometry relative="1" as="geometry" />
        </mxCell>
        <mxCell id="-vagqT4oPrXyImM88Zhv-13" style="edgeStyle=orthogonalEdgeStyle;rounded=0;orthogonalLoop=1;jettySize=auto;html=1;" edge="1" parent="WIyWlLk6GJQsqaUBKTNV-1" source="-vagqT4oPrXyImM88Zhv-3" target="-vagqT4oPrXyImM88Zhv-9">
          <mxGeometry relative="1" as="geometry">
            <Array as="points">
              <mxPoint x="110" y="-140" />
              <mxPoint x="-230" y="-140" />
            </Array>
          </mxGeometry>
        </mxCell>
        <mxCell id="-vagqT4oPrXyImM88Zhv-14" style="edgeStyle=orthogonalEdgeStyle;rounded=0;orthogonalLoop=1;jettySize=auto;html=1;" edge="1" parent="WIyWlLk6GJQsqaUBKTNV-1" source="-vagqT4oPrXyImM88Zhv-3" target="-vagqT4oPrXyImM88Zhv-11">
          <mxGeometry relative="1" as="geometry">
            <Array as="points">
              <mxPoint x="110" y="-140" />
              <mxPoint x="450" y="-140" />
            </Array>
          </mxGeometry>
        </mxCell>
        <mxCell id="-vagqT4oPrXyImM88Zhv-3" value="进入主界面" style="rounded=1;whiteSpace=wrap;html=1;absoluteArcSize=1;arcSize=14;strokeWidth=2;" vertex="1" parent="WIyWlLk6GJQsqaUBKTNV-1">
          <mxGeometry x="60" y="-200" width="100" height="30" as="geometry" />
        </mxCell>
        <mxCell id="-vagqT4oPrXyImM88Zhv-6" style="edgeStyle=orthogonalEdgeStyle;rounded=0;orthogonalLoop=1;jettySize=auto;html=1;entryX=0;entryY=0.5;entryDx=0;entryDy=0;" edge="1" parent="WIyWlLk6GJQsqaUBKTNV-1" source="-vagqT4oPrXyImM88Zhv-4" target="-vagqT4oPrXyImM88Zhv-7">
          <mxGeometry relative="1" as="geometry">
            <Array as="points">
              <mxPoint x="-30" y="-385" />
            </Array>
          </mxGeometry>
        </mxCell>
        <mxCell id="-vagqT4oPrXyImM88Zhv-4" value="退出登录" style="rounded=1;whiteSpace=wrap;html=1;absoluteArcSize=1;arcSize=14;strokeWidth=2;" vertex="1" parent="WIyWlLk6GJQsqaUBKTNV-1">
          <mxGeometry x="-80" y="-200" width="100" height="30" as="geometry" />
        </mxCell>
        <mxCell id="-vagqT4oPrXyImM88Zhv-7" value="用户登录" style="rounded=1;whiteSpace=wrap;html=1;absoluteArcSize=1;arcSize=14;strokeWidth=2;" vertex="1" parent="WIyWlLk6GJQsqaUBKTNV-1">
          <mxGeometry x="60" y="-400" width="100" height="30" as="geometry" />
        </mxCell>
        <mxCell id="-vagqT4oPrXyImM88Zhv-26" value="" style="edgeStyle=orthogonalEdgeStyle;rounded=0;orthogonalLoop=1;jettySize=auto;html=1;" edge="1" parent="WIyWlLk6GJQsqaUBKTNV-1" source="-vagqT4oPrXyImM88Zhv-9" target="-vagqT4oPrXyImM88Zhv-24">
          <mxGeometry relative="1" as="geometry" />
        </mxCell>
        <mxCell id="-vagqT4oPrXyImM88Zhv-27" style="edgeStyle=orthogonalEdgeStyle;rounded=0;orthogonalLoop=1;jettySize=auto;html=1;" edge="1" parent="WIyWlLk6GJQsqaUBKTNV-1" source="-vagqT4oPrXyImM88Zhv-9" target="-vagqT4oPrXyImM88Zhv-25">
          <mxGeometry relative="1" as="geometry">
            <Array as="points">
              <mxPoint x="-230" y="-60" />
              <mxPoint x="-90" y="-60" />
            </Array>
          </mxGeometry>
        </mxCell>
        <mxCell id="-vagqT4oPrXyImM88Zhv-28" style="edgeStyle=orthogonalEdgeStyle;rounded=0;orthogonalLoop=1;jettySize=auto;html=1;entryX=0.432;entryY=-0.004;entryDx=0;entryDy=0;entryPerimeter=0;" edge="1" parent="WIyWlLk6GJQsqaUBKTNV-1" source="-vagqT4oPrXyImM88Zhv-9" target="-vagqT4oPrXyImM88Zhv-23">
          <mxGeometry relative="1" as="geometry">
            <Array as="points">
              <mxPoint x="-230" y="-60" />
              <mxPoint x="-377" y="-60" />
            </Array>
          </mxGeometry>
        </mxCell>
        <mxCell id="-vagqT4oPrXyImM88Zhv-9" value="执行测试" style="rounded=1;whiteSpace=wrap;html=1;absoluteArcSize=1;arcSize=14;strokeWidth=2;" vertex="1" parent="WIyWlLk6GJQsqaUBKTNV-1">
          <mxGeometry x="-280" y="-110" width="100" height="30" as="geometry" />
        </mxCell>
        <mxCell id="-vagqT4oPrXyImM88Zhv-31" style="edgeStyle=orthogonalEdgeStyle;rounded=0;orthogonalLoop=1;jettySize=auto;html=1;" edge="1" parent="WIyWlLk6GJQsqaUBKTNV-1" source="-vagqT4oPrXyImM88Zhv-10" target="-vagqT4oPrXyImM88Zhv-29">
          <mxGeometry relative="1" as="geometry" />
        </mxCell>
        <mxCell id="-vagqT4oPrXyImM88Zhv-32" style="edgeStyle=orthogonalEdgeStyle;rounded=0;orthogonalLoop=1;jettySize=auto;html=1;" edge="1" parent="WIyWlLk6GJQsqaUBKTNV-1" source="-vagqT4oPrXyImM88Zhv-10" target="-vagqT4oPrXyImM88Zhv-30">
          <mxGeometry relative="1" as="geometry" />
        </mxCell>
        <mxCell id="-vagqT4oPrXyImM88Zhv-10" value="测试结果管理" style="rounded=1;whiteSpace=wrap;html=1;absoluteArcSize=1;arcSize=14;strokeWidth=2;" vertex="1" parent="WIyWlLk6GJQsqaUBKTNV-1">
          <mxGeometry x="60" y="-110" width="100" height="30" as="geometry" />
        </mxCell>
        <mxCell id="-vagqT4oPrXyImM88Zhv-19" style="edgeStyle=orthogonalEdgeStyle;rounded=0;orthogonalLoop=1;jettySize=auto;html=1;entryX=0.5;entryY=0;entryDx=0;entryDy=0;" edge="1" parent="WIyWlLk6GJQsqaUBKTNV-1" source="-vagqT4oPrXyImM88Zhv-11" target="-vagqT4oPrXyImM88Zhv-15">
          <mxGeometry relative="1" as="geometry">
            <Array as="points">
              <mxPoint x="450" y="-60" />
              <mxPoint x="304" y="-60" />
            </Array>
          </mxGeometry>
        </mxCell>
        <mxCell id="-vagqT4oPrXyImM88Zhv-20" style="edgeStyle=orthogonalEdgeStyle;rounded=0;orthogonalLoop=1;jettySize=auto;html=1;entryX=0.602;entryY=-0.068;entryDx=0;entryDy=0;entryPerimeter=0;" edge="1" parent="WIyWlLk6GJQsqaUBKTNV-1" source="-vagqT4oPrXyImM88Zhv-11" target="-vagqT4oPrXyImM88Zhv-16">
          <mxGeometry relative="1" as="geometry" />
        </mxCell>
        <mxCell id="-vagqT4oPrXyImM88Zhv-21" style="edgeStyle=orthogonalEdgeStyle;rounded=0;orthogonalLoop=1;jettySize=auto;html=1;" edge="1" parent="WIyWlLk6GJQsqaUBKTNV-1" source="-vagqT4oPrXyImM88Zhv-11" target="-vagqT4oPrXyImM88Zhv-17">
          <mxGeometry relative="1" as="geometry">
            <Array as="points">
              <mxPoint x="450" y="-60" />
              <mxPoint x="570" y="-60" />
            </Array>
          </mxGeometry>
        </mxCell>
        <mxCell id="-vagqT4oPrXyImM88Zhv-22" style="edgeStyle=orthogonalEdgeStyle;rounded=0;orthogonalLoop=1;jettySize=auto;html=1;" edge="1" parent="WIyWlLk6GJQsqaUBKTNV-1" source="-vagqT4oPrXyImM88Zhv-11" target="-vagqT4oPrXyImM88Zhv-18">
          <mxGeometry relative="1" as="geometry">
            <Array as="points">
              <mxPoint x="450" y="-60" />
              <mxPoint x="710" y="-60" />
            </Array>
          </mxGeometry>
        </mxCell>
        <mxCell id="-vagqT4oPrXyImM88Zhv-11" value="系统维护" style="rounded=1;whiteSpace=wrap;html=1;absoluteArcSize=1;arcSize=14;strokeWidth=2;" vertex="1" parent="WIyWlLk6GJQsqaUBKTNV-1">
          <mxGeometry x="400" y="-110" width="100" height="30" as="geometry" />
        </mxCell>
        <mxCell id="-vagqT4oPrXyImM88Zhv-15" value="用户管理" style="rounded=1;whiteSpace=wrap;html=1;absoluteArcSize=1;arcSize=14;strokeWidth=2;" vertex="1" parent="WIyWlLk6GJQsqaUBKTNV-1">
          <mxGeometry x="254" y="-10" width="100" height="30" as="geometry" />
        </mxCell>
        <mxCell id="-vagqT4oPrXyImM88Zhv-16" value="受试人员管理" style="rounded=1;whiteSpace=wrap;html=1;absoluteArcSize=1;arcSize=14;strokeWidth=2;" vertex="1" parent="WIyWlLk6GJQsqaUBKTNV-1">
          <mxGeometry x="390" y="-10" width="100" height="30" as="geometry" />
        </mxCell>
        <mxCell id="-vagqT4oPrXyImM88Zhv-17" value="手套/材料管理" style="rounded=1;whiteSpace=wrap;html=1;absoluteArcSize=1;arcSize=14;strokeWidth=2;" vertex="1" parent="WIyWlLk6GJQsqaUBKTNV-1">
          <mxGeometry x="520" y="-10" width="100" height="30" as="geometry" />
        </mxCell>
        <mxCell id="-vagqT4oPrXyImM88Zhv-18" value="基本信息设置" style="rounded=1;whiteSpace=wrap;html=1;absoluteArcSize=1;arcSize=14;strokeWidth=2;" vertex="1" parent="WIyWlLk6GJQsqaUBKTNV-1">
          <mxGeometry x="660" y="-10" width="100" height="30" as="geometry" />
        </mxCell>
        <mxCell id="-vagqT4oPrXyImM88Zhv-23" value="新建测试" style="rounded=1;whiteSpace=wrap;html=1;absoluteArcSize=1;arcSize=14;strokeWidth=2;" vertex="1" parent="WIyWlLk6GJQsqaUBKTNV-1">
          <mxGeometry x="-420" y="-10" width="100" height="30" as="geometry" />
        </mxCell>
        <mxCell id="-vagqT4oPrXyImM88Zhv-24" value="编辑测试" style="rounded=1;whiteSpace=wrap;html=1;absoluteArcSize=1;arcSize=14;strokeWidth=2;" vertex="1" parent="WIyWlLk6GJQsqaUBKTNV-1">
          <mxGeometry x="-280" y="-10" width="100" height="30" as="geometry" />
        </mxCell>
        <mxCell id="-vagqT4oPrXyImM88Zhv-34" value="" style="edgeStyle=orthogonalEdgeStyle;rounded=0;orthogonalLoop=1;jettySize=auto;html=1;" edge="1" parent="WIyWlLk6GJQsqaUBKTNV-1" source="-vagqT4oPrXyImM88Zhv-25" target="-vagqT4oPrXyImM88Zhv-33">
          <mxGeometry relative="1" as="geometry" />
        </mxCell>
        <mxCell id="-vagqT4oPrXyImM88Zhv-25" value="执行测试" style="rounded=1;whiteSpace=wrap;html=1;absoluteArcSize=1;arcSize=14;strokeWidth=2;" vertex="1" parent="WIyWlLk6GJQsqaUBKTNV-1">
          <mxGeometry x="-140" y="-10" width="100" height="30" as="geometry" />
        </mxCell>
        <mxCell id="-vagqT4oPrXyImM88Zhv-29" value="查询测试" style="rounded=1;whiteSpace=wrap;html=1;absoluteArcSize=1;arcSize=14;strokeWidth=2;" vertex="1" parent="WIyWlLk6GJQsqaUBKTNV-1">
          <mxGeometry x="-10" y="-10" width="100" height="30" as="geometry" />
        </mxCell>
        <mxCell id="-vagqT4oPrXyImM88Zhv-30" value="查看数据" style="rounded=1;whiteSpace=wrap;html=1;absoluteArcSize=1;arcSize=14;strokeWidth=2;" vertex="1" parent="WIyWlLk6GJQsqaUBKTNV-1">
          <mxGeometry x="120" y="-10" width="100" height="30" as="geometry" />
        </mxCell>
        <mxCell id="-vagqT4oPrXyImM88Zhv-40" value="" style="edgeStyle=orthogonalEdgeStyle;rounded=0;orthogonalLoop=1;jettySize=auto;html=1;entryX=0.5;entryY=0;entryDx=0;entryDy=0;" edge="1" parent="WIyWlLk6GJQsqaUBKTNV-1" source="-vagqT4oPrXyImM88Zhv-33" target="-vagqT4oPrXyImM88Zhv-51">
          <mxGeometry relative="1" as="geometry">
            <mxPoint x="80.05882352941171" y="160" as="targetPoint" />
          </mxGeometry>
        </mxCell>
        <mxCell id="-vagqT4oPrXyImM88Zhv-118" value="否" style="edgeLabel;html=1;align=center;verticalAlign=middle;resizable=0;points=[];" vertex="1" connectable="0" parent="-vagqT4oPrXyImM88Zhv-40">
          <mxGeometry x="-0.8122" y="1" relative="1" as="geometry">
            <mxPoint x="-11" as="offset" />
          </mxGeometry>
        </mxCell>
        <mxCell id="-vagqT4oPrXyImM88Zhv-106" value="是" style="edgeStyle=orthogonalEdgeStyle;rounded=0;orthogonalLoop=1;jettySize=auto;html=1;" edge="1" parent="WIyWlLk6GJQsqaUBKTNV-1" source="-vagqT4oPrXyImM88Zhv-33" target="-vagqT4oPrXyImM88Zhv-105">
          <mxGeometry x="-0.8182" y="15" relative="1" as="geometry">
            <mxPoint as="offset" />
          </mxGeometry>
        </mxCell>
        <mxCell id="-vagqT4oPrXyImM88Zhv-33" value="裸适配器结果是否过期？" style="rhombus;whiteSpace=wrap;html=1;" vertex="1" parent="WIyWlLk6GJQsqaUBKTNV-1">
          <mxGeometry x="-165" y="55" width="150" height="80" as="geometry" />
        </mxCell>
        <mxCell id="-vagqT4oPrXyImM88Zhv-53" value="" style="edgeStyle=orthogonalEdgeStyle;rounded=0;orthogonalLoop=1;jettySize=auto;html=1;entryX=0;entryY=0.5;entryDx=0;entryDy=0;entryPerimeter=0;" edge="1" parent="WIyWlLk6GJQsqaUBKTNV-1" source="-vagqT4oPrXyImM88Zhv-51" target="-vagqT4oPrXyImM88Zhv-61">
          <mxGeometry relative="1" as="geometry">
            <mxPoint x="40" y="206" as="targetPoint" />
          </mxGeometry>
        </mxCell>
        <mxCell id="-vagqT4oPrXyImM88Zhv-56" value="是" style="edgeLabel;html=1;align=center;verticalAlign=middle;resizable=0;points=[];" vertex="1" connectable="0" parent="-vagqT4oPrXyImM88Zhv-53">
          <mxGeometry x="-0.184" y="-1" relative="1" as="geometry">
            <mxPoint x="-5.8" y="-11" as="offset" />
          </mxGeometry>
        </mxCell>
        <mxCell id="-vagqT4oPrXyImM88Zhv-55" value="" style="edgeStyle=orthogonalEdgeStyle;rounded=0;orthogonalLoop=1;jettySize=auto;html=1;" edge="1" parent="WIyWlLk6GJQsqaUBKTNV-1" source="-vagqT4oPrXyImM88Zhv-51" target="-vagqT4oPrXyImM88Zhv-54">
          <mxGeometry relative="1" as="geometry" />
        </mxCell>
        <mxCell id="-vagqT4oPrXyImM88Zhv-57" value="否" style="edgeLabel;html=1;align=center;verticalAlign=middle;resizable=0;points=[];" vertex="1" connectable="0" parent="-vagqT4oPrXyImM88Zhv-55">
          <mxGeometry x="-0.8133" y="-2" relative="1" as="geometry">
            <mxPoint x="12" as="offset" />
          </mxGeometry>
        </mxCell>
        <mxCell id="-vagqT4oPrXyImM88Zhv-51" value="是否测试已完成？" style="rhombus;whiteSpace=wrap;html=1;" vertex="1" parent="WIyWlLk6GJQsqaUBKTNV-1">
          <mxGeometry x="-145" y="166" width="110" height="80" as="geometry" />
        </mxCell>
        <mxCell id="-vagqT4oPrXyImM88Zhv-63" value="" style="edgeStyle=orthogonalEdgeStyle;rounded=0;orthogonalLoop=1;jettySize=auto;html=1;" edge="1" parent="WIyWlLk6GJQsqaUBKTNV-1" source="-vagqT4oPrXyImM88Zhv-54" target="-vagqT4oPrXyImM88Zhv-62">
          <mxGeometry relative="1" as="geometry" />
        </mxCell>
        <mxCell id="-vagqT4oPrXyImM88Zhv-136" value="" style="edgeStyle=orthogonalEdgeStyle;rounded=0;orthogonalLoop=1;jettySize=auto;html=1;" edge="1" parent="WIyWlLk6GJQsqaUBKTNV-1" source="-vagqT4oPrXyImM88Zhv-54" target="-vagqT4oPrXyImM88Zhv-127">
          <mxGeometry relative="1" as="geometry" />
        </mxCell>
        <mxCell id="-vagqT4oPrXyImM88Zhv-54" value="切换到待测项目" style="whiteSpace=wrap;html=1;" vertex="1" parent="WIyWlLk6GJQsqaUBKTNV-1">
          <mxGeometry x="-150" y="276" width="120" height="60" as="geometry" />
        </mxCell>
        <mxCell id="-vagqT4oPrXyImM88Zhv-65" value="" style="edgeStyle=orthogonalEdgeStyle;rounded=0;orthogonalLoop=1;jettySize=auto;html=1;entryX=0.5;entryY=0;entryDx=0;entryDy=0;" edge="1" parent="WIyWlLk6GJQsqaUBKTNV-1" source="-vagqT4oPrXyImM88Zhv-58" target="-vagqT4oPrXyImM88Zhv-72">
          <mxGeometry relative="1" as="geometry">
            <mxPoint x="-89.94117647058829" y="929" as="targetPoint" />
            <Array as="points">
              <mxPoint x="-89" y="940" />
              <mxPoint x="-89" y="940" />
            </Array>
          </mxGeometry>
        </mxCell>
        <mxCell id="-vagqT4oPrXyImM88Zhv-67" value="" style="edgeStyle=orthogonalEdgeStyle;rounded=0;orthogonalLoop=1;jettySize=auto;html=1;" edge="1" parent="WIyWlLk6GJQsqaUBKTNV-1" source="-vagqT4oPrXyImM88Zhv-58" target="-vagqT4oPrXyImM88Zhv-66">
          <mxGeometry relative="1" as="geometry">
            <Array as="points">
              <mxPoint y="874" />
              <mxPoint y="874" />
            </Array>
          </mxGeometry>
        </mxCell>
        <mxCell id="-vagqT4oPrXyImM88Zhv-58" value="等待控制状态就绪" style="whiteSpace=wrap;html=1;" vertex="1" parent="WIyWlLk6GJQsqaUBKTNV-1">
          <mxGeometry x="-150" y="843.5" width="120" height="60" as="geometry" />
        </mxCell>
        <mxCell id="-vagqT4oPrXyImM88Zhv-61" value="测试已完成" style="strokeWidth=2;html=1;shape=mxgraph.flowchart.display;whiteSpace=wrap;" vertex="1" parent="WIyWlLk6GJQsqaUBKTNV-1">
          <mxGeometry x="200" y="176" width="100" height="60" as="geometry" />
        </mxCell>
        <mxCell id="-vagqT4oPrXyImM88Zhv-62" value="当前被测人员及次别" style="strokeWidth=2;html=1;shape=mxgraph.flowchart.display;whiteSpace=wrap;" vertex="1" parent="WIyWlLk6GJQsqaUBKTNV-1">
          <mxGeometry x="40" y="276" width="100" height="60" as="geometry" />
        </mxCell>
        <mxCell id="-vagqT4oPrXyImM88Zhv-66" value="设备准备中" style="strokeWidth=2;html=1;shape=mxgraph.flowchart.display;whiteSpace=wrap;" vertex="1" parent="WIyWlLk6GJQsqaUBKTNV-1">
          <mxGeometry x="40" y="844" width="100" height="60" as="geometry" />
        </mxCell>
        <mxCell id="-vagqT4oPrXyImM88Zhv-71" value="握紧手柄开始测试" style="strokeWidth=2;html=1;shape=mxgraph.flowchart.display;whiteSpace=wrap;" vertex="1" parent="WIyWlLk6GJQsqaUBKTNV-1">
          <mxGeometry x="41" y="990" width="100" height="60" as="geometry" />
        </mxCell>
        <mxCell id="-vagqT4oPrXyImM88Zhv-74" value="" style="edgeStyle=orthogonalEdgeStyle;rounded=0;orthogonalLoop=1;jettySize=auto;html=1;" edge="1" parent="WIyWlLk6GJQsqaUBKTNV-1" source="-vagqT4oPrXyImM88Zhv-72" target="-vagqT4oPrXyImM88Zhv-71">
          <mxGeometry relative="1" as="geometry" />
        </mxCell>
        <mxCell id="-vagqT4oPrXyImM88Zhv-95" value="" style="edgeStyle=orthogonalEdgeStyle;rounded=0;orthogonalLoop=1;jettySize=auto;html=1;" edge="1" parent="WIyWlLk6GJQsqaUBKTNV-1" source="-vagqT4oPrXyImM88Zhv-72" target="-vagqT4oPrXyImM88Zhv-85">
          <mxGeometry relative="1" as="geometry" />
        </mxCell>
        <mxCell id="-vagqT4oPrXyImM88Zhv-72" value="等待进给力和握力到达标准范围" style="whiteSpace=wrap;html=1;" vertex="1" parent="WIyWlLk6GJQsqaUBKTNV-1">
          <mxGeometry x="-149" y="990" width="120" height="60" as="geometry" />
        </mxCell>
        <mxCell id="-vagqT4oPrXyImM88Zhv-103" style="edgeStyle=orthogonalEdgeStyle;rounded=0;orthogonalLoop=1;jettySize=auto;html=1;entryX=1;entryY=0.5;entryDx=0;entryDy=0;" edge="1" parent="WIyWlLk6GJQsqaUBKTNV-1" source="-vagqT4oPrXyImM88Zhv-75" target="-vagqT4oPrXyImM88Zhv-85">
          <mxGeometry relative="1" as="geometry">
            <mxPoint x="201.00000000000023" y="1180" as="targetPoint" />
            <Array as="points">
              <mxPoint x="171" y="1340" />
              <mxPoint x="171" y="1120" />
            </Array>
          </mxGeometry>
        </mxCell>
        <mxCell id="-vagqT4oPrXyImM88Zhv-104" value="否" style="edgeLabel;html=1;align=center;verticalAlign=middle;resizable=0;points=[];" vertex="1" connectable="0" parent="-vagqT4oPrXyImM88Zhv-103">
          <mxGeometry x="-0.8802" y="-3" relative="1" as="geometry">
            <mxPoint x="-29.17" y="-13" as="offset" />
          </mxGeometry>
        </mxCell>
        <mxCell id="-vagqT4oPrXyImM88Zhv-109" value="是" style="edgeStyle=orthogonalEdgeStyle;rounded=0;orthogonalLoop=1;jettySize=auto;html=1;" edge="1" parent="WIyWlLk6GJQsqaUBKTNV-1" source="-vagqT4oPrXyImM88Zhv-75" target="-vagqT4oPrXyImM88Zhv-108">
          <mxGeometry x="0.2867" y="-10" relative="1" as="geometry">
            <mxPoint as="offset" />
          </mxGeometry>
        </mxCell>
        <mxCell id="-vagqT4oPrXyImM88Zhv-75" value="测试时间是否满足标准要求？" style="rhombus;whiteSpace=wrap;html=1;" vertex="1" parent="WIyWlLk6GJQsqaUBKTNV-1">
          <mxGeometry x="-184" y="1300" width="190" height="80" as="geometry" />
        </mxCell>
        <mxCell id="-vagqT4oPrXyImM88Zhv-79" value="显示测试进度" style="strokeWidth=2;html=1;shape=mxgraph.flowchart.display;whiteSpace=wrap;" vertex="1" parent="WIyWlLk6GJQsqaUBKTNV-1">
          <mxGeometry x="31" y="1190" width="100" height="60" as="geometry" />
        </mxCell>
        <mxCell id="-vagqT4oPrXyImM88Zhv-82" value="" style="edgeStyle=orthogonalEdgeStyle;rounded=0;orthogonalLoop=1;jettySize=auto;html=1;" edge="1" parent="WIyWlLk6GJQsqaUBKTNV-1" source="-vagqT4oPrXyImM88Zhv-80" target="-vagqT4oPrXyImM88Zhv-79">
          <mxGeometry relative="1" as="geometry" />
        </mxCell>
        <mxCell id="-vagqT4oPrXyImM88Zhv-102" value="" style="edgeStyle=orthogonalEdgeStyle;rounded=0;orthogonalLoop=1;jettySize=auto;html=1;" edge="1" parent="WIyWlLk6GJQsqaUBKTNV-1" source="-vagqT4oPrXyImM88Zhv-80" target="-vagqT4oPrXyImM88Zhv-75">
          <mxGeometry relative="1" as="geometry" />
        </mxCell>
        <mxCell id="-vagqT4oPrXyImM88Zhv-80" value="执行计算" style="whiteSpace=wrap;html=1;" vertex="1" parent="WIyWlLk6GJQsqaUBKTNV-1">
          <mxGeometry x="-149" y="1190" width="120" height="60" as="geometry" />
        </mxCell>
        <mxCell id="-vagqT4oPrXyImM88Zhv-91" value="否" style="edgeStyle=orthogonalEdgeStyle;rounded=0;orthogonalLoop=1;jettySize=auto;html=1;" edge="1" parent="WIyWlLk6GJQsqaUBKTNV-1" source="-vagqT4oPrXyImM88Zhv-85" target="-vagqT4oPrXyImM88Zhv-90">
          <mxGeometry x="-0.5556" y="-10" relative="1" as="geometry">
            <mxPoint as="offset" />
          </mxGeometry>
        </mxCell>
        <mxCell id="-vagqT4oPrXyImM88Zhv-96" value="是" style="edgeStyle=orthogonalEdgeStyle;rounded=0;orthogonalLoop=1;jettySize=auto;html=1;" edge="1" parent="WIyWlLk6GJQsqaUBKTNV-1" source="-vagqT4oPrXyImM88Zhv-85" target="-vagqT4oPrXyImM88Zhv-80">
          <mxGeometry x="-0.8394" y="10" relative="1" as="geometry">
            <mxPoint as="offset" />
          </mxGeometry>
        </mxCell>
        <mxCell id="-vagqT4oPrXyImM88Zhv-85" value="进给力和握力是否达标？" style="rhombus;whiteSpace=wrap;html=1;" vertex="1" parent="WIyWlLk6GJQsqaUBKTNV-1">
          <mxGeometry x="-169" y="1080" width="160" height="80" as="geometry" />
        </mxCell>
        <mxCell id="-vagqT4oPrXyImM88Zhv-92" style="edgeStyle=orthogonalEdgeStyle;rounded=0;orthogonalLoop=1;jettySize=auto;html=1;entryX=0;entryY=0.5;entryDx=0;entryDy=0;" edge="1" parent="WIyWlLk6GJQsqaUBKTNV-1" source="-vagqT4oPrXyImM88Zhv-90" target="-vagqT4oPrXyImM88Zhv-72">
          <mxGeometry relative="1" as="geometry">
            <Array as="points">
              <mxPoint x="-279" y="1020" />
            </Array>
          </mxGeometry>
        </mxCell>
        <mxCell id="-vagqT4oPrXyImM88Zhv-90" value="清空当前结果" style="whiteSpace=wrap;html=1;" vertex="1" parent="WIyWlLk6GJQsqaUBKTNV-1">
          <mxGeometry x="-334" y="1090" width="120" height="60" as="geometry" />
        </mxCell>
        <mxCell id="-vagqT4oPrXyImM88Zhv-116" style="edgeStyle=orthogonalEdgeStyle;rounded=0;orthogonalLoop=1;jettySize=auto;html=1;entryX=0;entryY=0.5;entryDx=0;entryDy=0;" edge="1" parent="WIyWlLk6GJQsqaUBKTNV-1" source="-vagqT4oPrXyImM88Zhv-98" target="-vagqT4oPrXyImM88Zhv-51">
          <mxGeometry relative="1" as="geometry">
            <mxPoint x="-480" y="910" as="targetPoint" />
            <Array as="points">
              <mxPoint x="-89" y="1620" />
              <mxPoint x="-480" y="1620" />
              <mxPoint x="-480" y="206" />
            </Array>
          </mxGeometry>
        </mxCell>
        <mxCell id="-vagqT4oPrXyImM88Zhv-98" value="记录当前测试结果" style="whiteSpace=wrap;html=1;" vertex="1" parent="WIyWlLk6GJQsqaUBKTNV-1">
          <mxGeometry x="-149" y="1513" width="120" height="60" as="geometry" />
        </mxCell>
        <mxCell id="-vagqT4oPrXyImM88Zhv-117" style="edgeStyle=orthogonalEdgeStyle;rounded=0;orthogonalLoop=1;jettySize=auto;html=1;exitX=0.5;exitY=1;exitDx=0;exitDy=0;exitPerimeter=0;entryX=0.5;entryY=0;entryDx=0;entryDy=0;" edge="1" parent="WIyWlLk6GJQsqaUBKTNV-1" source="-vagqT4oPrXyImM88Zhv-105" target="-vagqT4oPrXyImM88Zhv-51">
          <mxGeometry relative="1" as="geometry" />
        </mxCell>
        <mxCell id="-vagqT4oPrXyImM88Zhv-105" value="提示裸适配器结果已过期" style="strokeWidth=2;html=1;shape=mxgraph.flowchart.display;whiteSpace=wrap;" vertex="1" parent="WIyWlLk6GJQsqaUBKTNV-1">
          <mxGeometry x="40" y="65" width="100" height="60" as="geometry" />
        </mxCell>
        <mxCell id="-vagqT4oPrXyImM88Zhv-111" value="是" style="edgeStyle=orthogonalEdgeStyle;rounded=0;orthogonalLoop=1;jettySize=auto;html=1;" edge="1" parent="WIyWlLk6GJQsqaUBKTNV-1" source="-vagqT4oPrXyImM88Zhv-108" target="-vagqT4oPrXyImM88Zhv-110">
          <mxGeometry x="-0.6" y="-10" relative="1" as="geometry">
            <mxPoint as="offset" />
          </mxGeometry>
        </mxCell>
        <mxCell id="-vagqT4oPrXyImM88Zhv-115" value="否" style="edgeStyle=orthogonalEdgeStyle;rounded=0;orthogonalLoop=1;jettySize=auto;html=1;" edge="1" parent="WIyWlLk6GJQsqaUBKTNV-1" source="-vagqT4oPrXyImM88Zhv-108" target="-vagqT4oPrXyImM88Zhv-98">
          <mxGeometry x="0.2157" y="20" relative="1" as="geometry">
            <mxPoint as="offset" />
          </mxGeometry>
        </mxCell>
        <mxCell id="-vagqT4oPrXyImM88Zhv-108" value="裸适配器测试？" style="rhombus;whiteSpace=wrap;html=1;" vertex="1" parent="WIyWlLk6GJQsqaUBKTNV-1">
          <mxGeometry x="-159" y="1404" width="140" height="80" as="geometry" />
        </mxCell>
        <mxCell id="-vagqT4oPrXyImM88Zhv-112" style="edgeStyle=orthogonalEdgeStyle;rounded=0;orthogonalLoop=1;jettySize=auto;html=1;entryX=0;entryY=0.5;entryDx=0;entryDy=0;" edge="1" parent="WIyWlLk6GJQsqaUBKTNV-1" source="-vagqT4oPrXyImM88Zhv-110" target="-vagqT4oPrXyImM88Zhv-98">
          <mxGeometry relative="1" as="geometry">
            <Array as="points">
              <mxPoint x="-274" y="1543" />
            </Array>
          </mxGeometry>
        </mxCell>
        <mxCell id="-vagqT4oPrXyImM88Zhv-113" value="是" style="edgeLabel;html=1;align=center;verticalAlign=middle;resizable=0;points=[];" vertex="1" connectable="0" parent="-vagqT4oPrXyImM88Zhv-112">
          <mxGeometry x="-0.8529" y="3" relative="1" as="geometry">
            <mxPoint x="6.97" y="-3.08" as="offset" />
          </mxGeometry>
        </mxCell>
        <mxCell id="-vagqT4oPrXyImM88Zhv-114" value="否" style="edgeStyle=orthogonalEdgeStyle;rounded=0;orthogonalLoop=1;jettySize=auto;html=1;entryX=0.5;entryY=1;entryDx=0;entryDy=0;" edge="1" parent="WIyWlLk6GJQsqaUBKTNV-1" source="-vagqT4oPrXyImM88Zhv-110" target="-vagqT4oPrXyImM88Zhv-90">
          <mxGeometry x="-0.9213" y="-15" relative="1" as="geometry">
            <Array as="points">
              <mxPoint x="-274" y="1324" />
              <mxPoint x="-274" y="1324" />
            </Array>
            <mxPoint y="-1" as="offset" />
          </mxGeometry>
        </mxCell>
        <mxCell id="-vagqT4oPrXyImM88Zhv-110" value="满足裸适配器的传递率要求？" style="rhombus;whiteSpace=wrap;html=1;" vertex="1" parent="WIyWlLk6GJQsqaUBKTNV-1">
          <mxGeometry x="-334" y="1404" width="120" height="80" as="geometry" />
        </mxCell>
        <mxCell id="-vagqT4oPrXyImM88Zhv-129" value="是" style="edgeStyle=orthogonalEdgeStyle;rounded=0;orthogonalLoop=1;jettySize=auto;html=1;" edge="1" parent="WIyWlLk6GJQsqaUBKTNV-1" source="-vagqT4oPrXyImM88Zhv-127" target="-vagqT4oPrXyImM88Zhv-128">
          <mxGeometry x="-1" y="-20" relative="1" as="geometry">
            <mxPoint as="offset" />
          </mxGeometry>
        </mxCell>
        <mxCell id="-vagqT4oPrXyImM88Zhv-132" value="否" style="edgeStyle=orthogonalEdgeStyle;rounded=0;orthogonalLoop=1;jettySize=auto;html=1;exitX=1;exitY=0.5;exitDx=0;exitDy=0;exitPerimeter=0;entryX=1;entryY=0.5;entryDx=0;entryDy=0;entryPerimeter=0;" edge="1" parent="WIyWlLk6GJQsqaUBKTNV-1" source="-vagqT4oPrXyImM88Zhv-127" target="-vagqT4oPrXyImM88Zhv-134">
          <mxGeometry x="-0.9248" y="20" relative="1" as="geometry">
            <Array as="points">
              <mxPoint x="30" y="420" />
              <mxPoint x="30" y="650" />
            </Array>
            <mxPoint x="1" as="offset" />
          </mxGeometry>
        </mxCell>
        <mxCell id="-vagqT4oPrXyImM88Zhv-127" value="裸适配器测试？" style="strokeWidth=2;html=1;shape=mxgraph.flowchart.decision;whiteSpace=wrap;" vertex="1" parent="WIyWlLk6GJQsqaUBKTNV-1">
          <mxGeometry x="-140" y="370" width="100" height="100" as="geometry" />
        </mxCell>
        <mxCell id="-vagqT4oPrXyImM88Zhv-131" value="否" style="edgeStyle=orthogonalEdgeStyle;rounded=0;orthogonalLoop=1;jettySize=auto;html=1;" edge="1" parent="WIyWlLk6GJQsqaUBKTNV-1" source="-vagqT4oPrXyImM88Zhv-134" target="-vagqT4oPrXyImM88Zhv-130">
          <mxGeometry x="-1" y="20" relative="1" as="geometry">
            <mxPoint as="offset" />
          </mxGeometry>
        </mxCell>
        <mxCell id="-vagqT4oPrXyImM88Zhv-128" value="开启监测-固定裸适配器使握力达标-停止监测" style="whiteSpace=wrap;html=1;strokeWidth=2;" vertex="1" parent="WIyWlLk6GJQsqaUBKTNV-1">
          <mxGeometry x="-150" y="510" width="120" height="60" as="geometry" />
        </mxCell>
        <mxCell id="-vagqT4oPrXyImM88Zhv-133" value="" style="edgeStyle=orthogonalEdgeStyle;rounded=0;orthogonalLoop=1;jettySize=auto;html=1;" edge="1" parent="WIyWlLk6GJQsqaUBKTNV-1" source="-vagqT4oPrXyImM88Zhv-130" target="-vagqT4oPrXyImM88Zhv-58">
          <mxGeometry relative="1" as="geometry" />
        </mxCell>
        <mxCell id="-vagqT4oPrXyImM88Zhv-130" value="开始控制测试" style="whiteSpace=wrap;html=1;strokeWidth=2;" vertex="1" parent="WIyWlLk6GJQsqaUBKTNV-1">
          <mxGeometry x="-150" y="730" width="120" height="60" as="geometry" />
        </mxCell>
        <mxCell id="-vagqT4oPrXyImM88Zhv-139" style="edgeStyle=orthogonalEdgeStyle;rounded=0;orthogonalLoop=1;jettySize=auto;html=1;entryX=0.5;entryY=0;entryDx=0;entryDy=0;" edge="1" parent="WIyWlLk6GJQsqaUBKTNV-1" source="-vagqT4oPrXyImM88Zhv-134" target="-vagqT4oPrXyImM88Zhv-72">
          <mxGeometry relative="1" as="geometry">
            <Array as="points">
              <mxPoint x="-240" y="650" />
              <mxPoint x="-240" y="940" />
              <mxPoint x="-89" y="940" />
            </Array>
          </mxGeometry>
        </mxCell>
        <mxCell id="-vagqT4oPrXyImM88Zhv-140" value="是" style="edgeLabel;html=1;align=center;verticalAlign=middle;resizable=0;points=[];" vertex="1" connectable="0" parent="-vagqT4oPrXyImM88Zhv-139">
          <mxGeometry x="-0.9125" y="-1" relative="1" as="geometry">
            <mxPoint x="15.71" y="-19" as="offset" />
          </mxGeometry>
        </mxCell>
        <mxCell id="-vagqT4oPrXyImM88Zhv-134" value="控制状态已就绪" style="strokeWidth=2;html=1;shape=mxgraph.flowchart.decision;whiteSpace=wrap;" vertex="1" parent="WIyWlLk6GJQsqaUBKTNV-1">
          <mxGeometry x="-140" y="600" width="100" height="100" as="geometry" />
        </mxCell>
        <mxCell id="-vagqT4oPrXyImM88Zhv-135" value="" style="edgeStyle=orthogonalEdgeStyle;rounded=0;orthogonalLoop=1;jettySize=auto;html=1;" edge="1" parent="WIyWlLk6GJQsqaUBKTNV-1" source="-vagqT4oPrXyImM88Zhv-128" target="-vagqT4oPrXyImM88Zhv-134">
          <mxGeometry relative="1" as="geometry">
            <mxPoint x="-90" y="570" as="sourcePoint" />
            <mxPoint x="-90" y="740" as="targetPoint" />
          </mxGeometry>
        </mxCell>
        <mxCell id="-vagqT4oPrXyImM88Zhv-137" value="准备测试" style="strokeWidth=2;html=1;shape=mxgraph.flowchart.annotation_2;align=left;labelPosition=right;pointerEvents=1;direction=west;" vertex="1" parent="WIyWlLk6GJQsqaUBKTNV-1">
          <mxGeometry x="170" y="300" width="50" height="580" as="geometry" />
        </mxCell>
        <mxCell id="-vagqT4oPrXyImM88Zhv-138" value="执行测试计算" style="strokeWidth=2;html=1;shape=mxgraph.flowchart.annotation_2;align=left;labelPosition=right;pointerEvents=1;direction=west;" vertex="1" parent="WIyWlLk6GJQsqaUBKTNV-1">
          <mxGeometry x="180" y="1010" width="50" height="550" as="geometry" />
        </mxCell>
        <mxCell id="-vagqT4oPrXyImM88Zhv-160" style="edgeStyle=orthogonalEdgeStyle;rounded=0;orthogonalLoop=1;jettySize=auto;html=1;" edge="1" parent="WIyWlLk6GJQsqaUBKTNV-1" source="-vagqT4oPrXyImM88Zhv-141" target="-vagqT4oPrXyImM88Zhv-153">
          <mxGeometry relative="1" as="geometry" />
        </mxCell>
        <mxCell id="-vagqT4oPrXyImM88Zhv-141" value="进给力1" style="rounded=0;whiteSpace=wrap;html=1;" vertex="1" parent="WIyWlLk6GJQsqaUBKTNV-1">
          <mxGeometry x="560" y="930" width="120" height="60" as="geometry" />
        </mxCell>
        <mxCell id="-vagqT4oPrXyImM88Zhv-161" style="edgeStyle=orthogonalEdgeStyle;rounded=0;orthogonalLoop=1;jettySize=auto;html=1;" edge="1" parent="WIyWlLk6GJQsqaUBKTNV-1" source="-vagqT4oPrXyImM88Zhv-142" target="-vagqT4oPrXyImM88Zhv-153">
          <mxGeometry relative="1" as="geometry" />
        </mxCell>
        <mxCell id="-vagqT4oPrXyImM88Zhv-142" value="进给力2" style="rounded=0;whiteSpace=wrap;html=1;" vertex="1" parent="WIyWlLk6GJQsqaUBKTNV-1">
          <mxGeometry x="720" y="930" width="120" height="60" as="geometry" />
        </mxCell>
        <mxCell id="-vagqT4oPrXyImM88Zhv-162" style="edgeStyle=orthogonalEdgeStyle;rounded=0;orthogonalLoop=1;jettySize=auto;html=1;" edge="1" parent="WIyWlLk6GJQsqaUBKTNV-1" source="-vagqT4oPrXyImM88Zhv-143" target="-vagqT4oPrXyImM88Zhv-156">
          <mxGeometry relative="1" as="geometry" />
        </mxCell>
        <mxCell id="-vagqT4oPrXyImM88Zhv-143" value="握力1" style="rounded=0;whiteSpace=wrap;html=1;" vertex="1" parent="WIyWlLk6GJQsqaUBKTNV-1">
          <mxGeometry x="870" y="930" width="120" height="60" as="geometry" />
        </mxCell>
        <mxCell id="-vagqT4oPrXyImM88Zhv-163" style="edgeStyle=orthogonalEdgeStyle;rounded=0;orthogonalLoop=1;jettySize=auto;html=1;" edge="1" parent="WIyWlLk6GJQsqaUBKTNV-1" source="-vagqT4oPrXyImM88Zhv-144" target="-vagqT4oPrXyImM88Zhv-156">
          <mxGeometry relative="1" as="geometry" />
        </mxCell>
        <mxCell id="-vagqT4oPrXyImM88Zhv-144" value="握力2" style="rounded=0;whiteSpace=wrap;html=1;" vertex="1" parent="WIyWlLk6GJQsqaUBKTNV-1">
          <mxGeometry x="1010" y="930" width="120" height="60" as="geometry" />
        </mxCell>
        <mxCell id="-vagqT4oPrXyImM88Zhv-171" value="" style="edgeStyle=orthogonalEdgeStyle;rounded=0;orthogonalLoop=1;jettySize=auto;html=1;" edge="1" parent="WIyWlLk6GJQsqaUBKTNV-1" source="-vagqT4oPrXyImM88Zhv-145" target="-vagqT4oPrXyImM88Zhv-170">
          <mxGeometry relative="1" as="geometry" />
        </mxCell>
        <mxCell id="-vagqT4oPrXyImM88Zhv-145" value="参考X" style="rounded=0;whiteSpace=wrap;html=1;" vertex="1" parent="WIyWlLk6GJQsqaUBKTNV-1">
          <mxGeometry x="1150" y="930" width="120" height="60" as="geometry" />
        </mxCell>
        <mxCell id="-vagqT4oPrXyImM88Zhv-180" value="" style="edgeStyle=orthogonalEdgeStyle;rounded=0;orthogonalLoop=1;jettySize=auto;html=1;" edge="1" parent="WIyWlLk6GJQsqaUBKTNV-1" source="-vagqT4oPrXyImM88Zhv-146" target="-vagqT4oPrXyImM88Zhv-175">
          <mxGeometry relative="1" as="geometry" />
        </mxCell>
        <mxCell id="-vagqT4oPrXyImM88Zhv-146" value="参考Y" style="rounded=0;whiteSpace=wrap;html=1;" vertex="1" parent="WIyWlLk6GJQsqaUBKTNV-1">
          <mxGeometry x="1300" y="930" width="120" height="60" as="geometry" />
        </mxCell>
        <mxCell id="-vagqT4oPrXyImM88Zhv-181" value="" style="edgeStyle=orthogonalEdgeStyle;rounded=0;orthogonalLoop=1;jettySize=auto;html=1;" edge="1" parent="WIyWlLk6GJQsqaUBKTNV-1" source="-vagqT4oPrXyImM88Zhv-147" target="-vagqT4oPrXyImM88Zhv-178">
          <mxGeometry relative="1" as="geometry" />
        </mxCell>
        <mxCell id="-vagqT4oPrXyImM88Zhv-147" value="参考Z" style="rounded=0;whiteSpace=wrap;html=1;" vertex="1" parent="WIyWlLk6GJQsqaUBKTNV-1">
          <mxGeometry x="1450" y="930" width="120" height="60" as="geometry" />
        </mxCell>
        <mxCell id="-vagqT4oPrXyImM88Zhv-197" value="" style="edgeStyle=orthogonalEdgeStyle;rounded=0;orthogonalLoop=1;jettySize=auto;html=1;" edge="1" parent="WIyWlLk6GJQsqaUBKTNV-1" source="-vagqT4oPrXyImM88Zhv-148" target="-vagqT4oPrXyImM88Zhv-189">
          <mxGeometry relative="1" as="geometry" />
        </mxCell>
        <mxCell id="-vagqT4oPrXyImM88Zhv-148" value="被测X" style="rounded=0;whiteSpace=wrap;html=1;" vertex="1" parent="WIyWlLk6GJQsqaUBKTNV-1">
          <mxGeometry x="1730" y="920" width="120" height="60" as="geometry" />
        </mxCell>
        <mxCell id="-vagqT4oPrXyImM88Zhv-198" value="" style="edgeStyle=orthogonalEdgeStyle;rounded=0;orthogonalLoop=1;jettySize=auto;html=1;" edge="1" parent="WIyWlLk6GJQsqaUBKTNV-1" source="-vagqT4oPrXyImM88Zhv-149" target="-vagqT4oPrXyImM88Zhv-192">
          <mxGeometry relative="1" as="geometry" />
        </mxCell>
        <mxCell id="-vagqT4oPrXyImM88Zhv-149" value="被测Y" style="rounded=0;whiteSpace=wrap;html=1;" vertex="1" parent="WIyWlLk6GJQsqaUBKTNV-1">
          <mxGeometry x="1880" y="920" width="120" height="60" as="geometry" />
        </mxCell>
        <mxCell id="-vagqT4oPrXyImM88Zhv-199" value="" style="edgeStyle=orthogonalEdgeStyle;rounded=0;orthogonalLoop=1;jettySize=auto;html=1;" edge="1" parent="WIyWlLk6GJQsqaUBKTNV-1" source="-vagqT4oPrXyImM88Zhv-150" target="-vagqT4oPrXyImM88Zhv-195">
          <mxGeometry relative="1" as="geometry" />
        </mxCell>
        <mxCell id="-vagqT4oPrXyImM88Zhv-150" value="被测Z" style="rounded=0;whiteSpace=wrap;html=1;" vertex="1" parent="WIyWlLk6GJQsqaUBKTNV-1">
          <mxGeometry x="2030" y="920" width="120" height="60" as="geometry" />
        </mxCell>
        <mxCell id="-vagqT4oPrXyImM88Zhv-166" value="" style="edgeStyle=orthogonalEdgeStyle;rounded=0;orthogonalLoop=1;jettySize=auto;html=1;" edge="1" parent="WIyWlLk6GJQsqaUBKTNV-1" source="-vagqT4oPrXyImM88Zhv-151" target="-vagqT4oPrXyImM88Zhv-152">
          <mxGeometry relative="1" as="geometry" />
        </mxCell>
        <mxCell id="-vagqT4oPrXyImM88Zhv-151" value="求和" style="rounded=0;whiteSpace=wrap;html=1;" vertex="1" parent="WIyWlLk6GJQsqaUBKTNV-1">
          <mxGeometry x="650" y="1140" width="120" height="60" as="geometry" />
        </mxCell>
        <mxCell id="-vagqT4oPrXyImM88Zhv-168" value="" style="edgeStyle=orthogonalEdgeStyle;rounded=0;orthogonalLoop=1;jettySize=auto;html=1;" edge="1" parent="WIyWlLk6GJQsqaUBKTNV-1" source="-vagqT4oPrXyImM88Zhv-152" target="-vagqT4oPrXyImM88Zhv-158">
          <mxGeometry relative="1" as="geometry" />
        </mxCell>
        <mxCell id="-vagqT4oPrXyImM88Zhv-152" value="时域平均" style="rounded=0;whiteSpace=wrap;html=1;" vertex="1" parent="WIyWlLk6GJQsqaUBKTNV-1">
          <mxGeometry x="650" y="1230" width="120" height="60" as="geometry" />
        </mxCell>
        <mxCell id="-vagqT4oPrXyImM88Zhv-165" value="" style="edgeStyle=orthogonalEdgeStyle;rounded=0;orthogonalLoop=1;jettySize=auto;html=1;" edge="1" parent="WIyWlLk6GJQsqaUBKTNV-1" source="-vagqT4oPrXyImM88Zhv-153" target="-vagqT4oPrXyImM88Zhv-151">
          <mxGeometry relative="1" as="geometry" />
        </mxCell>
        <mxCell id="-vagqT4oPrXyImM88Zhv-153" value="转换到标准单位" style="rounded=0;whiteSpace=wrap;html=1;" vertex="1" parent="WIyWlLk6GJQsqaUBKTNV-1">
          <mxGeometry x="650" y="1040" width="120" height="60" as="geometry" />
        </mxCell>
        <mxCell id="-vagqT4oPrXyImM88Zhv-167" value="" style="edgeStyle=orthogonalEdgeStyle;rounded=0;orthogonalLoop=1;jettySize=auto;html=1;" edge="1" parent="WIyWlLk6GJQsqaUBKTNV-1" source="-vagqT4oPrXyImM88Zhv-154" target="-vagqT4oPrXyImM88Zhv-155">
          <mxGeometry relative="1" as="geometry" />
        </mxCell>
        <mxCell id="-vagqT4oPrXyImM88Zhv-154" value="求和" style="rounded=0;whiteSpace=wrap;html=1;" vertex="1" parent="WIyWlLk6GJQsqaUBKTNV-1">
          <mxGeometry x="940" y="1140" width="120" height="60" as="geometry" />
        </mxCell>
        <mxCell id="-vagqT4oPrXyImM88Zhv-169" value="" style="edgeStyle=orthogonalEdgeStyle;rounded=0;orthogonalLoop=1;jettySize=auto;html=1;" edge="1" parent="WIyWlLk6GJQsqaUBKTNV-1" source="-vagqT4oPrXyImM88Zhv-155" target="-vagqT4oPrXyImM88Zhv-159">
          <mxGeometry relative="1" as="geometry" />
        </mxCell>
        <mxCell id="-vagqT4oPrXyImM88Zhv-155" value="时域平均" style="rounded=0;whiteSpace=wrap;html=1;" vertex="1" parent="WIyWlLk6GJQsqaUBKTNV-1">
          <mxGeometry x="940" y="1230" width="120" height="60" as="geometry" />
        </mxCell>
        <mxCell id="-vagqT4oPrXyImM88Zhv-164" value="" style="edgeStyle=orthogonalEdgeStyle;rounded=0;orthogonalLoop=1;jettySize=auto;html=1;" edge="1" parent="WIyWlLk6GJQsqaUBKTNV-1" source="-vagqT4oPrXyImM88Zhv-156" target="-vagqT4oPrXyImM88Zhv-154">
          <mxGeometry relative="1" as="geometry" />
        </mxCell>
        <mxCell id="-vagqT4oPrXyImM88Zhv-156" value="转换到标准单位" style="rounded=0;whiteSpace=wrap;html=1;" vertex="1" parent="WIyWlLk6GJQsqaUBKTNV-1">
          <mxGeometry x="940" y="1040" width="120" height="60" as="geometry" />
        </mxCell>
        <mxCell id="-vagqT4oPrXyImM88Zhv-158" value="进给力" style="rounded=0;whiteSpace=wrap;html=1;" vertex="1" parent="WIyWlLk6GJQsqaUBKTNV-1">
          <mxGeometry x="650" y="1330" width="120" height="60" as="geometry" />
        </mxCell>
        <mxCell id="-vagqT4oPrXyImM88Zhv-159" value="握力" style="rounded=0;whiteSpace=wrap;html=1;" vertex="1" parent="WIyWlLk6GJQsqaUBKTNV-1">
          <mxGeometry x="940" y="1330" width="120" height="60" as="geometry" />
        </mxCell>
        <mxCell id="-vagqT4oPrXyImM88Zhv-173" value="" style="edgeStyle=orthogonalEdgeStyle;rounded=0;orthogonalLoop=1;jettySize=auto;html=1;" edge="1" parent="WIyWlLk6GJQsqaUBKTNV-1" source="-vagqT4oPrXyImM88Zhv-170" target="-vagqT4oPrXyImM88Zhv-172">
          <mxGeometry relative="1" as="geometry" />
        </mxCell>
        <mxCell id="-vagqT4oPrXyImM88Zhv-170" value="转换到标准单位" style="rounded=0;whiteSpace=wrap;html=1;" vertex="1" parent="WIyWlLk6GJQsqaUBKTNV-1">
          <mxGeometry x="1150" y="1040" width="120" height="60" as="geometry" />
        </mxCell>
        <mxCell id="-vagqT4oPrXyImM88Zhv-186" style="edgeStyle=orthogonalEdgeStyle;rounded=0;orthogonalLoop=1;jettySize=auto;html=1;" edge="1" parent="WIyWlLk6GJQsqaUBKTNV-1" source="-vagqT4oPrXyImM88Zhv-172">
          <mxGeometry relative="1" as="geometry">
            <mxPoint x="1360" y="1260" as="targetPoint" />
            <Array as="points">
              <mxPoint x="1210" y="1230" />
              <mxPoint x="1360" y="1230" />
            </Array>
          </mxGeometry>
        </mxCell>
        <mxCell id="-vagqT4oPrXyImM88Zhv-172" value="&lt;div&gt;计算1/3倍频程&lt;/div&gt;&lt;div&gt;a&lt;sub&gt;R(x)&lt;/sub&gt;(f)&lt;br&gt;&lt;/div&gt;" style="whiteSpace=wrap;html=1;rounded=0;" vertex="1" parent="WIyWlLk6GJQsqaUBKTNV-1">
          <mxGeometry x="1150" y="1140" width="120" height="60" as="geometry" />
        </mxCell>
        <mxCell id="-vagqT4oPrXyImM88Zhv-174" value="" style="edgeStyle=orthogonalEdgeStyle;rounded=0;orthogonalLoop=1;jettySize=auto;html=1;" edge="1" source="-vagqT4oPrXyImM88Zhv-175" target="-vagqT4oPrXyImM88Zhv-176" parent="WIyWlLk6GJQsqaUBKTNV-1">
          <mxGeometry relative="1" as="geometry" />
        </mxCell>
        <mxCell id="-vagqT4oPrXyImM88Zhv-175" value="转换到标准单位" style="rounded=0;whiteSpace=wrap;html=1;" vertex="1" parent="WIyWlLk6GJQsqaUBKTNV-1">
          <mxGeometry x="1300" y="1040" width="120" height="60" as="geometry" />
        </mxCell>
        <mxCell id="-vagqT4oPrXyImM88Zhv-185" value="" style="edgeStyle=orthogonalEdgeStyle;rounded=0;orthogonalLoop=1;jettySize=auto;html=1;" edge="1" parent="WIyWlLk6GJQsqaUBKTNV-1" source="-vagqT4oPrXyImM88Zhv-176" target="-vagqT4oPrXyImM88Zhv-184">
          <mxGeometry relative="1" as="geometry" />
        </mxCell>
        <mxCell id="-vagqT4oPrXyImM88Zhv-176" value="&lt;div&gt;计算1/3倍频程&lt;/div&gt;&lt;div&gt;a&lt;sub&gt;R(y)&lt;/sub&gt;(f)&lt;br&gt;&lt;/div&gt;" style="whiteSpace=wrap;html=1;rounded=0;" vertex="1" parent="WIyWlLk6GJQsqaUBKTNV-1">
          <mxGeometry x="1300" y="1140" width="120" height="60" as="geometry" />
        </mxCell>
        <mxCell id="-vagqT4oPrXyImM88Zhv-177" value="" style="edgeStyle=orthogonalEdgeStyle;rounded=0;orthogonalLoop=1;jettySize=auto;html=1;" edge="1" source="-vagqT4oPrXyImM88Zhv-178" target="-vagqT4oPrXyImM88Zhv-179" parent="WIyWlLk6GJQsqaUBKTNV-1">
          <mxGeometry relative="1" as="geometry" />
        </mxCell>
        <mxCell id="-vagqT4oPrXyImM88Zhv-178" value="转换到标准单位" style="rounded=0;whiteSpace=wrap;html=1;" vertex="1" parent="WIyWlLk6GJQsqaUBKTNV-1">
          <mxGeometry x="1450" y="1040" width="120" height="60" as="geometry" />
        </mxCell>
        <mxCell id="-vagqT4oPrXyImM88Zhv-187" style="edgeStyle=orthogonalEdgeStyle;rounded=0;orthogonalLoop=1;jettySize=auto;html=1;entryX=0.5;entryY=0;entryDx=0;entryDy=0;" edge="1" parent="WIyWlLk6GJQsqaUBKTNV-1" source="-vagqT4oPrXyImM88Zhv-179" target="-vagqT4oPrXyImM88Zhv-184">
          <mxGeometry relative="1" as="geometry" />
        </mxCell>
        <mxCell id="-vagqT4oPrXyImM88Zhv-179" value="&lt;div&gt;计算1/3倍频程&lt;/div&gt;&lt;div&gt;a&lt;sub&gt;R(z)&lt;/sub&gt;(f)&lt;br&gt;&lt;/div&gt;" style="whiteSpace=wrap;html=1;rounded=0;" vertex="1" parent="WIyWlLk6GJQsqaUBKTNV-1">
          <mxGeometry x="1450" y="1140" width="120" height="60" as="geometry" />
        </mxCell>
        <mxCell id="-vagqT4oPrXyImM88Zhv-205" value="" style="edgeStyle=orthogonalEdgeStyle;rounded=0;orthogonalLoop=1;jettySize=auto;html=1;" edge="1" parent="WIyWlLk6GJQsqaUBKTNV-1" source="-vagqT4oPrXyImM88Zhv-184" target="-vagqT4oPrXyImM88Zhv-204">
          <mxGeometry relative="1" as="geometry">
            <Array as="points">
              <mxPoint x="1360" y="1390" />
              <mxPoint x="1630" y="1390" />
            </Array>
          </mxGeometry>
        </mxCell>
        <mxCell id="-vagqT4oPrXyImM88Zhv-184" value="&lt;div&gt;计算a&lt;sub&gt;R&lt;/sub&gt;(f)&lt;/div&gt;&lt;div&gt;&lt;img src=&quot;data:image/png;base64,iVBORw0KGgoAAAANSUhEUgAAAWcAAABACAIAAABJBCHgAAAV2klEQVR42u2cd3QV1RbGIwqIhAcWFBBRBKSjqCBIEyLSOwholK4oRaqKhCYgXaMQLHQEMUgVlKIoUm2AhihggvQmESlRQAXfb9291qx5M3NvZi5Drvr29weLzJw7c84+e3/722fOzBV//fVXlEKhULjGFcoaCoXCE5Q1FAqFNyhrKBQKb1DWUCgU3qCsoVAovEFZQ6FQeIOyhkKh8AZlDYVC4Q3KGgqFwhuUNRQKhTcoaygUCm9Q1lAoFN6grKFQKLxBWUOhUHiDsoZCofAGZQ2FQuENyhrhY8SIEWXKlIl0LxQKn9G0adPQDZQ1wsSJEyeGDBmSI0eOSHdEofAZY8eODd1AWSNMLF269NixY0888USkO6JQZDaUNcJE//79mzdvXrly5Uh3RKHIbChrhImGDRsiN6688soQbd56662PP/64RIkS5cqVq1u3bnR0dKR7HTH06dMnLS3tjjvuqFix4kMPPRTp7kQM9957b9myZUuWLCkuEenuhImIsUa9evUWLFiQM2dO9z8hAp9//vmvv/46Ih0245133klNTR08eHDoZhMnTuzRo8f+/ft79erVt2/fKlWq+NuNTZs2YcOXX37Z06/gsi1btrz55puZZq7Dhw+vXLmyY8eO/L9WrVpz5swpUKCAj9fHK26//Xav1eKUKVNw/sysMSlpk5OTY2Jitm7dOmjQoNmzZ19//fU+Xv/hhx8ePXo0pvD6q/nz53v6SWRYA8aFAvLkyWM/tWrVqg8++GDv3r3jx48nNVnOYut8+fJ169Yt8/tsBgHQunXrOnXqhGjz448/ynwwiwT2mTNnhgwZ4mMfMOC8efOmTZvmeBZeW758ea5cuRzZoX79+hBZpuV8OoMFhO4fe+yxokWL+miKxMTEcePGBcslS5YsSUhIKFWq1KhRo6655hq7HYYPH37PPfdkvh0eeeSRtm3bNmrUyK+LE1NUzbil/RSsDUV+/vnnzZo1s7MkJtq2bduwYcPc3ysCrDFy5EhmkQE4nkXKFixYEPsyl3aP/+mnn5o2bTpmzJhq1aplcrfNIN4WLlxITLps/+STTzLkZ555xq8OnDt3jmuSY9G69rOom65du3K7gQMHPhGApcG6desmTJgA49xwww2ZbDp/TXH+/PlOnTrBQcWKFbOfJffExsZu2LCBiMKX7OyAHeLj4xFfmW8HugTZ1axZ05erITnXrl07adIkx7MkYBhz165dGzdudKRXpqN06dLuZVdmswaiGtZftmyZ49lvv/0WJ4Ay8GnG4JgEOMvIvcpyH/HJJ59gfVSPy/Y7duwgwb7//vs+ynIcnZB46aWXHM8ifVEiuALNII5ChQrZ2xBpN998s0tHIdR9qWgWLVrE3AXrdhiA+HLkyEHedjw7efJkEuyAAQMWL178wgsvOLaJlB3Q1H4ViWlpaV26dGGMjmcpixA1Q4cO3bx5M6nart8BFVNcXBxu45I9M5s14NcLFy6QJB3P4uWUJ0uXLg19EWpj6reKFStmZs8NtGvXrkOHDg888IDL9tQpzz33nL8yuH379q1atWrQoIHjWZybOi605oSgmQXUafbs2TO8HYnx0peTKNkoLVesWOGXEYgW6JjYc6RFgInKlCkTuhryZAcqmg8//PASu02IQlI+Ls8RNZgiGC0SUFggw6SFxi9RooRL9gyTNX7++efwFnLatGmDTwcTZiRwapAMORhfoU5p0aJFGB24dHBrckWWLFksx1NTU6nYzUeIE9IdTA9l+JWmogIFSPPmzdesWZM7d27HBqSUevXqhfaAEydOUGclJiYWKVIkwzt6ZQ2UzoMPPmg+kpSUNGLECFl1w8t9WYNEk2PSefPmOZ79/vvvH3/8cQQX3uKXHWrXrv3RRx+57yFGw3QWy7z33nt0Gz+fO3du7969L90OpDGySLCYwtrUL6tXrw59EdT9qVOnXnzxRTd39MwaJ0+eHDNmDGqnXLlySDv0j/ti4fDhw40bN54zZw6sZjlFUB0/fpx4MHJyiBgjOeTPn9/HZQL3SE5OhrzRDuaDZKrp06fnypUrb968FO1HjhyR/Na/f/9bb7317NmzEEp0dDQT40sfSNdIrc8++8x+Ch+lwk9JSREz8m+I+IRZGIgb0eSeNTAF1TXtc+bMedNNNzFNjRo1IhP27du3bt26dOzQoUM1atQIVlN4AqFOAfLKK684drhw4cJ79uzx1w60garc9O21114jRojkLVu24ANly5bFDiQbyluoh4Pk3UcfffT++++/dDsgvUlO9piCLzZs2HDmzJkbb7xRjoSIqXfffRcZRZHi5o7eWAOC7NWrV6VKlXr27BkVCHXGb/YnOmpub5mqdevWIYRCiCUmmwYZulRCQsIPP/zw6quv2k8Jl4f++bXXXkvUuR+1GehAsijzZB4ygDWg0U2bNmEZWYDEMjJnWbNm5Y52a4QNaBrfxYyOZ7kv88L0w1+hr9O5c+fq1auTkDO8o0vWwA6kYrG/zDUhXa1aNY5fvHiRg1cEcE8AvtghxJMpmRc3IsK9HapUqbJx48YMmw0YMIA8IXaQbhh2MDejerp01vj1119h4dAxhTINVr8YgH9JcuvXr3dzU2+swTzRP2aCNBIVYI2o/yUw7MLtoRX6unv3bhoTKsbzDuyITiFJOm7TkEeVY8eONcek4+o32Z6DwcLmsiImJob7Gv2nzx06dCBpCCOQXnr06AHxX9Y1F6TWwYMHkWyOZ8XI5LT//Oc/coRUT563hz1ylNm3Rx254cCBA/J/Gvz222/EvyVNISIsbiqmGDZsmCRtyIsEgzC+fK/qYAf8MJjI5+yOHTvMa2TLli2je+HZ4cKFCzAUdGBZyrUUYoCMPXjw4PHjx4sdiAhmauXKlfbnvr5AoiZ0TMXFxZlfSHNcwjh69KhsXKSAyPCmHlgDq6G4oFtJ8vJowPJg7/Tp09x75syZstUEky1fvtwIb3leDa1cddVV9uvLss3ixYtvueUW4yDOZ89L8D3lSeZv98KN4uPjzX6DECWrv/766xUqVIgKPLwguohYN0trYYNZpwQNtlODGMDClkW7X375RfSOGcwjxb9dtaKYzIyMOqD4Jz7xS1yfEoNLMSmWgBk3bhw+h9a7+uqr+RMrUalNnDjx8tkBHyhevPjTTz/teLZVq1bExvDhw40jFMhQmKMdkAb2rhp2wALyLz5PocEAs2XLJgcR/5ZNAJ06ddq1a5dhBxL4+fPn8ZPLZARZvgkWU0g/eYSUYUydO3euatWqIpkzvKkH1qAooHZ46qmnsEtUoIIdMWKERQgQMEOHDkWdyp+MB31osHhSUlLHjh3JP9ddd539+iNHjlyzZg1XMN8RqrKPcO7cuUi+YKxh0YGOCK9YgPKols07Tfr167chAJkzDAJnB3ts7oitW7fefffdwU7h5fYdGZAyDBusEEOOFi1a1PzaItfJly+fXcHCPuhbN2u0bpZyMQu3oHiUP1u0aFG/fn1xFZdg6s0y00Cw1VNCER3k+DwOaXDfffeZdz3hSLCY43NH7ACVuHmUTsbG7UO3gUzhMrEDfMGf+DwqzL0dHKM6KkidmJ6ejqgJFlPkM/zEElPR0dF2Z9i5c2dsbCzJxlgECQEPrCEFs0ETUrDJKrExmNGjR9MtCsXk5OR9+/bRP6jOuAJzTAHJMIg9+/VJDuheg5VplidPHjzesvQYFchj8uTfsZ/QvPH/YPI49OZu+yMAY9osEg6XJY0bEYX4YgrRHTiKdA87kLKiApkKa5QqVapYsWKGWEVALliw4Nlnn3XsxsmTJ4m6hQsXWo6TWNDAjqvi8kSgZ8+eRpUO0/35559ly5atV6+epTHalWjxizXgCIJKwlt0qDwpQDzLKpKFzdGt5q1Z2JbaG8pzvPjQACwHEQKYwnH3B9meshF6NT6AQn/oleNeL+zAdLtJJE2aNMlwW4DZDhIyU6ZMISahLTkodvjjjz8QI3h4+fLlzXvAcXhyJ3zneHdm075M07hxY+SSY0z17duXGxkxRdRgLmyCZSwtV6xYAW+61O8eWCMlJQUT0I8GDRoYi44YAhVk8D2R37JlSzQbhcn+/fvJvZaLQLqUu3feeaflOJI7JibGXO+QLbGp4xsTiFJy+2VSfQwNxrU/GLp48WL37t0nT55sPojjMgFMBuE6a9YsRBC9xTJkWqlZKIwhDuaDHzJ/e/bsoQ02xE3T0tLwbH4b4mWc9wOYOnWq+SD3ggK++OILe3uyChxkxAbWg60keCxRwXCYJvjdTRp0wxrM18GDB5kUghO1Rff4CV4oi1/SGUHbtm0hsu3btxMhtIe5jh8/vn79+mCUAQYOHIh7WJQIP8cylhkRSLVrxAAtMRr5n2i0LECKHSCsYJtfzCA+M1xNww6MjgvCaMz15s2b6QbEhE0kjWMBmBRea9euHdGHHfbu3WsQ69q1aynkg13cccMIlRpZyh5TUQGiYVzG1DMXRChDsMcOt4Y4gm0Vs8DbaujGjRvJnImJiZSLlSpVErKAvWTvhmQYo4hyXMgcNWoUFbK8yGSGPH2wtO/RowcZye5MFlv4CKrEuLg4qgwmj9rVfGrOnDmEvT3GCHscF3+iS5ACpPP777+bSSc+Ph4CNY60adMG76fzZC1CZfz48aG7xEzbt8kSeASAvbTBG5gdOp81a1Y5ghQi9ZHuLOJc1slwZeYxQ7O4YY1jx44Rq19++SV6irqA0YnSNk8TRqAmklqAjtWuXVtmHDlJMDOtwS5OzEPEn376qfkgQoaDjsv+Y8aMOXTokDk2iF7i2R4VYgeXC9iNGjUKtq3ZbIdVq1Zxa0mB8q6gxQ7t27dnvGY9InZo2LAhpbfj7ngBtT/lsOWBCC5EeWKPKeojNLUlpogyDtpfV4FkUUMud1H4uTcUjnz77bdl858snSKkCSdzG3iH1IcTG0eIqEKFCuHrM2bMQI0biRdrwkfTpk2bP3++2eJJSUk4GTfy/d2B06dPk6iZOcSwPCozn4W84MrSpUt7vSw+QYqQkICVunXrNnLkSJzG/oaiUcDjysZxXKRq1apcwXxNcizlnjz/FkDZJUuWpP8kOvPcy95zogt7ms2IICKQXHoJ0saXPZ2yLiaGpQNLliyhe8w4NMrUyzoltEIeNgjRMAUUg+dYVvj79esHWRsbnM6ePQtxQ1v2okPecOVSltpz9uzZ33zzjUs7+LI3VHYtyWuN/EmWYsrwhCNHjuAqZi1DEFHvE/PIUsIEm0DKpCULa9hjih9yTX6Fh5jfLKfmbdasGeRrWSqCX8j3JGmXr3f5xho4JUmVil0So5gG/sY0TK25JSPBdYxFPng3e/bsiLeiRYui2YxmDIzfclmmirLcOI7AKVCggDlgfARcXrx4cRyRZE4dYT7FkWDbEEOjevXqcBAlGEo1PT09NjZW0r55Pcio+cmcOD2zSDYQE8kpi7BC0tM9Y08OdZC8zki2J5Ob9yNKHrN4CXme1AR/OS7fOE7upe+w2LdvH+SFc+PNcBDTTR+o7S9cuFC3bl1jzyVuA2uvXLmS2OC+9FxkDgPp1KmTRRFgLooyY7ldinNGSoFMHjKvavHz3r17E3XmfRmiViZMmODySbkvdpAHwPA+V0OV3HXXXcIClFHTp083L6WTA1JTU6nTkb1vvPFGVOB9PFKOmSAEffr0odo1+iYbqbgLNMFxc/8ha4qUXLlymbUn0oyUyZVdDsE31hDnzpIlC4WiOCisiRN3797dHPNg27ZtTLYR9rAGUYp2sFeMiBeKHTP/ySc2aOz4rqdfoIigGDEvQ65evTo5OZm58Xop4hlrMCvR0dGzZs2qUKECWkZOmVljwIAB1G4Ec506dfBsjEkzWej+OAD7tjSigrkXDSJ3IZOnpKRYNgUfPHiQ9EhYml/WkHUHzHj5bGgHSQ/XT0hIoHrq1asXRUHBggWjAmoCTSrbT3DrqMDqTO7cuRnRuHHjcCdZDseGhQsXRkRYLkuEwH1Egvwc0/EnZGR5CZ3jX331lSXe4JHbbrstkzcZo6AJZkiT/MS84/aimmENBIh5ohEaxLaZ8RGYsKp5vV/Akblz56LWDZsUKVJk+/btlilGi+HVefPmNX/kgbugMnCJEJWRBZH5vgYjZEhiIHnK4HKRguyEhzHTl7V7JB9khaEhowJcjr+6WQKwgNgmi8py5tq1a5FdBlPYH6QZLymYDxJCpFDix35xcizpRWpAbIhLudEOO3fuZHSevqfgC8ichIc8MKIiQJDLoKitCCSzf7ds2XLs2LEYH5vjGDIoJgWWdPQT1DU0JJkWJU8z+6YMO4iWrl27mp9KZg7oLWlJFl/NgyJbQKyWL/3C+ObiVHZVOD7pMOsyqjxm2aUsYi7oQ5cuXdwPIWLf8gqxTyEEfJGIGUIUDRHO7MoRcjWaOYxLIanQSpIJmR4qdoMUzKyB+CI5oKuRJEgGc3ohJ6PhyQaO16cS9PoCvuTzTPsUjYBKu0mTJrIfPyqQDPFUWQmG7CgTjHUTgnngwIGwp6xTGjsIQr+UaV4Jcgm/XqLzCubdGBRlb82aNaUbmIiMaH6tplatWmIxJFJMTAwDPHbsGHQT7PloeNERhh30u6EOoNyF4CtXriz7BSG4JUuWuHwd0AB+vHnz5pkzZ5JbSBFSp3AwNjYWYWzZ50JIfPfddwQPipSwiTItZEBeDwUQaauED3ngamRCPBulkz9//jJlysCqFlNgIigboSdvJ1Dqy/HWrVvDJm52Lv5tYbaDhDc6kdyZlJS0aNGiqP99VtW8eXPaIJ2EC+Q4vhEXF+f1g32+Q1nDGZRCzCWyP1u2bPHx8eXLl69Ro4anK+D96enp8jniHDlySCaEQdq1ayf5tn///tTe1atXjwo8UEBuyJPCAwcOmPf/Elfdu3d33NT4TwHazRBE8k4dEik9ANGbDLBp06ZiFoTVqVOnhCWN/TtpaWmdO3fOcF/m3xzwhaEF5D/QIn7CjMvajfnLmCIBoAw8xyi4li1bRvuIvO1thrKGM2bMmJGQkEDZCVlQX2T4Hm14yPC5DPIka9asYazC/rOQmJi4e/dueZTQvn17MjAyZNKkScaGC0Lo5MmTwTbR/muAHVJTU5FUwRpUrVp12rRpxYsXj2w/lTWcsXfv3pYtW6ISSXHDhw+/TG9hQUyU98He0T569Ki8bOr+A6X/XJBmZauVbItKSUmhuJPnPggN7DB16lTLvrt/JQw72E9RuFGg+fJpkkuEskZQtGjR4uzZs7BGzpw5Q3+O/FIQYi0qc5Z+/z4IZopILVuqHYJBWSMo5B05KhS/vsGlUPw7oKwRFPJev+MLggrF/zOUNUKBInPQoEEh3qpSKP4PoawRCj5+WFyh+NdAWUOhUHiDsoZCofAGZQ2FQuENyhoKhcIblDUUCoU3KGsoFApvUNZQKBTeoKyhUCi8QVlDoVB4g7KGQqHwBmUNhULhDcoaCoXCG5Q1FAqFNyhrKBQKb/gvM7GkRIu9ghsAAAAASUVORK5CYII=&quot; width=&quot;359&quot; height=&quot;64&quot;&gt;&lt;/div&gt;" style="whiteSpace=wrap;html=1;rounded=0;" vertex="1" parent="WIyWlLk6GJQsqaUBKTNV-1">
          <mxGeometry x="1155" y="1260" width="410" height="100" as="geometry" />
        </mxCell>
        <mxCell id="-vagqT4oPrXyImM88Zhv-188" value="" style="edgeStyle=orthogonalEdgeStyle;rounded=0;orthogonalLoop=1;jettySize=auto;html=1;" edge="1" source="-vagqT4oPrXyImM88Zhv-189" target="-vagqT4oPrXyImM88Zhv-190" parent="WIyWlLk6GJQsqaUBKTNV-1">
          <mxGeometry relative="1" as="geometry" />
        </mxCell>
        <mxCell id="-vagqT4oPrXyImM88Zhv-189" value="转换到标准单位" style="rounded=0;whiteSpace=wrap;html=1;" vertex="1" parent="WIyWlLk6GJQsqaUBKTNV-1">
          <mxGeometry x="1730" y="1040" width="120" height="60" as="geometry" />
        </mxCell>
        <mxCell id="-vagqT4oPrXyImM88Zhv-202" value="" style="edgeStyle=orthogonalEdgeStyle;rounded=0;orthogonalLoop=1;jettySize=auto;html=1;" edge="1" parent="WIyWlLk6GJQsqaUBKTNV-1" source="-vagqT4oPrXyImM88Zhv-190" target="-vagqT4oPrXyImM88Zhv-200">
          <mxGeometry relative="1" as="geometry" />
        </mxCell>
        <mxCell id="-vagqT4oPrXyImM88Zhv-190" value="&lt;div&gt;计算1/3倍频程&lt;/div&gt;&lt;div&gt;a&lt;sub&gt;R(P*x)&lt;/sub&gt;(f)&lt;br&gt;&lt;/div&gt;" style="whiteSpace=wrap;html=1;rounded=0;" vertex="1" parent="WIyWlLk6GJQsqaUBKTNV-1">
          <mxGeometry x="1730" y="1140" width="120" height="60" as="geometry" />
        </mxCell>
        <mxCell id="-vagqT4oPrXyImM88Zhv-191" value="" style="edgeStyle=orthogonalEdgeStyle;rounded=0;orthogonalLoop=1;jettySize=auto;html=1;" edge="1" source="-vagqT4oPrXyImM88Zhv-192" target="-vagqT4oPrXyImM88Zhv-193" parent="WIyWlLk6GJQsqaUBKTNV-1">
          <mxGeometry relative="1" as="geometry" />
        </mxCell>
        <mxCell id="-vagqT4oPrXyImM88Zhv-192" value="转换到标准单位" style="rounded=0;whiteSpace=wrap;html=1;" vertex="1" parent="WIyWlLk6GJQsqaUBKTNV-1">
          <mxGeometry x="1880" y="1040" width="120" height="60" as="geometry" />
        </mxCell>
        <mxCell id="-vagqT4oPrXyImM88Zhv-201" value="" style="edgeStyle=orthogonalEdgeStyle;rounded=0;orthogonalLoop=1;jettySize=auto;html=1;" edge="1" parent="WIyWlLk6GJQsqaUBKTNV-1" source="-vagqT4oPrXyImM88Zhv-193" target="-vagqT4oPrXyImM88Zhv-200">
          <mxGeometry relative="1" as="geometry" />
        </mxCell>
        <mxCell id="-vagqT4oPrXyImM88Zhv-193" value="&lt;div&gt;计算1/3倍频程&lt;/div&gt;&lt;div&gt;a&lt;sub&gt;R(P*y)&lt;/sub&gt;(f)&lt;br&gt;&lt;/div&gt;" style="whiteSpace=wrap;html=1;rounded=0;" vertex="1" parent="WIyWlLk6GJQsqaUBKTNV-1">
          <mxGeometry x="1880" y="1140" width="120" height="60" as="geometry" />
        </mxCell>
        <mxCell id="-vagqT4oPrXyImM88Zhv-194" value="" style="edgeStyle=orthogonalEdgeStyle;rounded=0;orthogonalLoop=1;jettySize=auto;html=1;" edge="1" source="-vagqT4oPrXyImM88Zhv-195" target="-vagqT4oPrXyImM88Zhv-196" parent="WIyWlLk6GJQsqaUBKTNV-1">
          <mxGeometry relative="1" as="geometry" />
        </mxCell>
        <mxCell id="-vagqT4oPrXyImM88Zhv-195" value="转换到标准单位" style="rounded=0;whiteSpace=wrap;html=1;" vertex="1" parent="WIyWlLk6GJQsqaUBKTNV-1">
          <mxGeometry x="2030" y="1040" width="120" height="60" as="geometry" />
        </mxCell>
        <mxCell id="-vagqT4oPrXyImM88Zhv-203" value="" style="edgeStyle=orthogonalEdgeStyle;rounded=0;orthogonalLoop=1;jettySize=auto;html=1;" edge="1" parent="WIyWlLk6GJQsqaUBKTNV-1" source="-vagqT4oPrXyImM88Zhv-196" target="-vagqT4oPrXyImM88Zhv-200">
          <mxGeometry relative="1" as="geometry" />
        </mxCell>
        <mxCell id="-vagqT4oPrXyImM88Zhv-196" value="&lt;div&gt;计算1/3倍频程&lt;/div&gt;&lt;div&gt;a&lt;sub&gt;R(P*z)&lt;/sub&gt;(f)&lt;br&gt;&lt;/div&gt;" style="whiteSpace=wrap;html=1;rounded=0;" vertex="1" parent="WIyWlLk6GJQsqaUBKTNV-1">
          <mxGeometry x="2030" y="1140" width="120" height="60" as="geometry" />
        </mxCell>
        <mxCell id="-vagqT4oPrXyImM88Zhv-207" style="edgeStyle=orthogonalEdgeStyle;rounded=0;orthogonalLoop=1;jettySize=auto;html=1;" edge="1" parent="WIyWlLk6GJQsqaUBKTNV-1" source="-vagqT4oPrXyImM88Zhv-200" target="-vagqT4oPrXyImM88Zhv-204">
          <mxGeometry relative="1" as="geometry">
            <Array as="points">
              <mxPoint x="1940" y="1390" />
              <mxPoint x="1630" y="1390" />
            </Array>
          </mxGeometry>
        </mxCell>
        <mxCell id="-vagqT4oPrXyImM88Zhv-200" value="&lt;div&gt;计算a&lt;sub&gt;h(P*)&lt;/sub&gt;(f)&lt;/div&gt;&lt;img src=&quot;data:image/png;base64,iVBORw0KGgoAAAANSUhEUgAAAa0AAAAzCAIAAACrL8DnAAAX5klEQVR42u2ceZxN5R/HrxZFRFmiJFumEqKUPaUySNYs2UUkxk7KCGVrRshaY8m+F9lJ1tBU1NTInsqeCmOdtt/7db8vz++8zjn3zrl3xrnGfT5/zOvOWZ/n+3y/n+/n+5znnAz//fefR0NDQyOMkUHzoIaGRphD86CGhka4Q/OghoZGuEPzoIaGRrhD86CGhka4Q/OghoZGuEPzoIaGRrhD86CGhka4Q/OghoZGuEPzoIaGRrhD8+A1gYMHD27fvj1z5syhboiGxnWCOnXqOD9Y8+A1gSlTpmzcuPGuu+4KdUM0NK4TvPvuu84P1jx4TaBDhw4TJ04MdSs0NMIUmgdDDyri9evX9+3bN9QN0dAIU2geDD26dOnSqlWrUqVK+Tnmm2++6d69+wMPPFCyZMnixYtXqlQp1K1OB3jsscew1YMPPliiRInIyMhQN+dax4cffrhkyZKIiAjxsdKlS4e6Re7heuBB3H3YsGHPPPNMQGddO6XoCy+88Omnn/o/ZsKECdWqVStUqNCsWbMSEhKGDx8eqta+/vrrNOOVV14J6Ky4uDg8LdCzUoMTJ07s2LGjevXq/I2Ojp4+fXqOHDncNpYXDRs2xD8xWkBn0ea3337bzXZKRFy4cGHw4MGFCxdu06aNq2a6guDMxVnz588P+qbpngdnzJjB3+bNm1t3nTlzBk9KSkpCTH399demvQcPHiSkU2O7NMHevXuXLl3ao0cP/4e1b98+Y8aMY8aM8Xh5n7x9zz33uN9aSvgVK1YMGjTIdu977723cuVKPPiDDz6w7q1RowbD8eijj7rT1NmzZ9MeGfeXXnqpSZMmtWrVct9iDFavXr0aNWpk3XXkyJGxY8fGx8ez15ohyHz4xsiRI91sKjUHtsIhyVsp5maXzXX06FFahQfWrVvXaq7Fixfv3Llz4MCBwd03ffMgyig2NpZUb7uX4WQsCbxJkyYRmdYIpBDYv39/QM+V0hz9+/dHyVauXNnh8XA6nLhmzZo777zT5aZeunSJW5M8qDStewnaqKgoKLJjx46veGE6YNOmTaNGjcLmOXPmdLnlRFdMTMxTTz3l8n0XLly4YcMGyM52L66bKVOmqVOn4pnWzJGcnIwNy5cv76aIFjBG0M2UKVOuNXNlzpx5z549X3zxhVXWeLzzS8WKFQvOXOmbB0lfuDgZzNfe/PnzY7u8efPaaoHz58+3bt26c+fOIZxugwQha+crB8l4xYsXr1evnvtNJTwOHTo0ZMgQX3u3bNnSt29fJCGWtz3mrbfeQsY69FQ411ZXBoqPP/549erVaXKpgHDq1Kl27dp98skntnsp25GoGISUFhkZaeuBmzdvpkSdOXOmk8yB/R/1IvUtr169OlLaNtuF1lwDBgzYtm0berBo0aLWY3bs2NGvXz9UURCJNh3zIF7SrVu3RYsW3Xfffda9hw8frlOnDn7mvxqaNm3ad999x6iHpAtURpS6w4YNc3i8iKmQkCBu2rx5806dOtWsWdP2gIYNG5KNMbifi2Bq5CQlzC233JLiHStUqEDmT2WzRT7byoerDQYLo73xxhu2e/HboUOHkgLvvvtuPxeRh2NOMsfo0aMrVqyYeh5kHMm1LpOg++YyIVU8+Pvvv4dq7hmMHDkyPj5+zpw5tnslAND2JUqU8HORzz777P333w/JVIjHOweUO3fu+vXrm7bbGpbulClTpm3btsuXL6coLleunJtNpWDp2bPnunXrsmXLZnsAwty2HDbijz/+eO655+bNm1e4cOEU7/jss8+uXbvWeQshO9pg3MLgLliwQJQgYeZygdm4cWOGzFcxPmjQIOQzYtD/RUaMGHHmzBlfE7JGQBPY1jkPIu0LFChg2li1alXu+Mgjj3DH/v37u2muli1btmrVyjVzmRAkD54+fXr48OFoVFiGSgfV6r6k6t27N7LC+kwNBsTp+ZGYmIhC4QcB4Ms/9u7dS1lNvN1xxx0ut9/j5Q6qNop3tcWXYdd5QTLct28faXPWrFkuNxXyQjuvWLHCuoto93jNLkbmrx/Goebq06dPlSpVUryjk8foAjIZFiOEaAPFQfHixSkCDh48iK7hdgwxuvvJJ5/0NX9yNXD06FHaT0mLPDHtio6OpoJjKG+44QbZ4qdmnzt3Ljb3NQNuBLRVu3ZtJzz47bffYrELFy7kypUL6iFYpAFxcXHnz5//66+/9u/ff/LkSV8l6lXC008/PX78eKu5aN78+fMLFiyYtuYyIRgexEZdu3YtW7ZsVFSUxxsGtg9krSA/B7q6xeN7gUuzZs0qV67sK+Qw38aNG1Pki+Tk5PLly0+dOpXgse6liPvzzz/9XwFPCk6acWUYQSg7RcMaD/N4mT2IO6YG0PGePXt8uaCobydCDz3LqLVo0SLFOzZp0sSX2Deib9++xC26T6wEKBQqVarEj3PnziUlJeXNm9fjZWfXHlUrg/ip40iB9erV81UGKmzfvr1Xr16bN29O8Y746osvvphiHzdt2oTFYmNjcVoha/WUJoQ+Bv+SqNw0lwnB8CAhQYtxenkfVuSAipCYmBj80irBmjdv/uOPPyq6FKMvXry4WrVqN954I5UgCcF2tpjEDs1bTUDd1L17dxK+bSMbNmwYERFhVIu+5svJogSn+4sqyFqwMLd2aNjQgjDLkiVLv379bPeiYbdu3bpkyRK1BdEaGRlpzY7ULLicdRqRHPDrr7/K73/++Qf+Ioe99tprxmNgNFOckPzRQUS1CEycCgm2atWqkH+xQniQTHzbbbdZ9+LS+CfGNH4LgC2oBBP7HD9+/Pnnn7ddJsUt1O+LFy8uW7YMHjQdY6VF4wIsj7PZDBcgBrmq5vKPgHkQB6UAqVChwujRo/kXaoPgjKY8e/YsjGadSEICmPQqIXHTTTcJwSEVceIZM2bYzqCjj7hLmTJljBshTcIPNWc9XuahTIZThZsJLVu2pEfIugDHLrXAaymR1PSlybAeL9FzTMh9VNClSxe0nghV275Q0RizDtYuVKiQdbaB3pEmVRwqQKNSBWfIkEH+4hI1atSA0YgNlJ3HG9WmeuLll19GpXLkrbfeKo3Enyn6Qm0tz65du3B45Akebt27du1aRBmF57333mu0mNU/L1++jEvYTnOTmdRvzEXHqRzJVZiLREJ5y3YKDuMpiEGkQ8eOHWWNdEJCAj9sl5SlU3NdunSpYsWKKT4VsCJgHpQJtVdffRUX9HgF3TvvvGM05Zo1a1auXGla/4kWi4+PNz0YJXgYBhF0aIG6desuXLjQOnfr8YoLRn3SpEnGjRiuZs2atksuuReDTVV1//33yxZKAGxku0gd1u7ZsychZ91lqhTA33//newFfiZ/Ydsg1AfnUtcbV3GbDAsvQDoOfZQSO63mN31lC8jl8OHDtmstibonnnjCuPwVTmdACxYsmClTJtPBxCFNJQGk2BIKJQSC/2OgRVT/uHHj5F9ciEKvdevWTnq6Y8eONHl1DN+2PsGHuJGovpZ5TpgwgUL+888/V1uQabaz2OIVyN7cuXP7bwa+inv7n3eSteVxcXHyEidjijRx+DCd1hIpqTcXCtR6x0DNhVkoDrJmzWo6cvfu3YSVE3OZEDAPiuBX8SkzMvKoTrqHKMDRoTO0OgMjh3Xu3BnBZRxmEZL07fbbb5fr0Af1sMW6dswaFQMHDoSACD9rIxlvYkOtupB78cOUUjzecgwG9EU3CA1bI5B4SVw3e2F6RmkCQj1PnjzW7QTPTz/9ZHyNxJdhocWYmBj8QypT0oapqRz222+/vfnmm6rNpAFUef78+bk7ojKg1ZGcSEEKHZu2I9bmeGE9BUXWtGnTjz766OGHH5YtMgeCJ1hnLWzLGVtwLgnV/zGMHZJfriajTJDv3LmTOCHpqjRmvR31ChwtxQRlF73DVhg5e/bs+G27du2c5zYKGup3ayEGIyN+SQbWUxh3MqjSrcQtSo0ixpp3GU3G3QlVOeFB5VTyr0y8yINmNh44cADr4a5du3Y1nYiT001F98RXYmIi+U+ERYr3NaJ27dqEuXUe2bm5iJ0hQ4bYLj7HYUixQSyTCpgH9+3bh/loGVpM1iV4vH6GdhWhjqNjFxQWRSuSXipT/o4dOzZfvnzqOpKaULBEEXIGXTl37lw4EYvTYeQkd4HI1EQSPLh06VIhTQHnypMvayOpuI8cOaLMxOiSVGvVqsVdjFfwXFGOKa5LChqNGzemX9btZAW0sPE1EjEsNsQpjYbFjCIb0S/8a3q+DGB8tsPI8i98SsLApDAgqpMgZ0tAk4wMJXRgmoXg7iQz2wV9y5cvZ5iU83EkTkW8tWzZ0jRr8e+//0LKRJSvRYhGEHV01v8x6FMUOhekpJoxY8aXX35JM6pWrQrNSUvouPVJsaRkuiP/YiKccOLEiRj//PnzuARMSqSpYsI/OJdctWXLFtN2inSGuGTJktZT4AIsoNi5vRcfeGE60o+Tm+CEB4Um5HEWx4v2z5kzJ/WWNAaLDRgwwPSYniy7efNmo+alWKFhyEORXRyPOnP+wSSyl3XhQUDmopTkplaz0Cn6GMST7mCekxAMGAJrkvDLli0r9Iff5MiRY//+/fSHwPB4NSB1imhp4mHDhg0ZM2ZUF6E+QlKhIIoVK3bhwgWlWbgy8ofseubMGSputUaaq5HtH3/8cXUFwnXUqFFyLxNwdLzfWB9hICo16yIbIg2WXLJkibFtaYX+/fsz3uPHjzc2WwDZscs0G0LfcXo8TAw7ZswYynnsKYtaiU80F1cznoKOgPVMZSYdj4yMlCpVpmsDnQMaPHiwEpgCEc62D9Zxx/Xr1xudj8iBGqyrXmTC29YgVkBeJEv/x5w4cWL16tU0gCBp0KDBwoULJbZVzJBpcCfKdmMbMC8dMV4HJQIXKPfA09CDzpOH6DiT6oyNjUVgWr9WICnKNCJIsHLlylkneWAlMrQT+UwYPuOF/8OoPWlttmzZyK84G/9SvSkKY2hIqMhh4yl9+vQhfiEjtUUeNKsKQN5ocK7CcFrShunJZ0DmioqKQmNZzUU+TkpKCmINXxq/T4IjJiQkIMegNsIGlpGCnxTNb/XkhBIAszJyVl0gaYoDKBu5jpq242BCyDihI284TJ482SjlJAyIfHgZKjEaDnnCXpNLBff1FCcgtIoWLQpDcV8lPQSrVq3CD2D5gC4ILVIdIDAp3FDW8kCJ68P4Ru+XmVY1A4DZ+S1fo5D+mmZpZYHxpUuXIC81aQBHlypVSlacKJC6kEjGkpnykz727t2bEmnEiBFqO9oKd2TQTRNw06dPJ/Ycumnbtm1NM8KB4pdffiGL0H36iJyR160wyPfff296YN2pU6dq1arJmgGpr1WJQK5ll3q/gmuSvWQXR8p2rrl7925TYCMXYAqyrLE9nAtfTJgwgUhRz0ZPnz7NkCEsqFeMrkgO69ChAwlJlsH6h0Me9A8EBA1A0NA2Vb0RTYsWLTJOQJs+xCCvWkr3ochly5YZe4En4CdEJQGLBXAJMjoVT4rm4kTEPqSJO1nNReo1rY2/fPkyAxfca7JpzIOEBOyDz8E41GtkM34z8ESvfMxHDpNZDzU5aIT0Td4lwNxqOQtsgk+b4koym0oLMv1B6sAvuZ3xSJm+NC1gREuiC2BSX+9IpAbSEfIbxenMmTONuyBlmkFGDeiCjDEj3aRJE8rkFi1ayNQbjovqND7/wTvJH3SWXJKYmDhy5MhmzZoxCtIezDh06FDxVLbAyChH8jn1ID4KXUpgU2AikE2fROQw3FQ99JcJTa7DRahPixQpoo6URwc9e/YkyauNKEqZAzKqMz/44Ycf1IRjcEAqQiLEGxFIxSerUOl1pkyZTB8oQp5jFmKVPtJ4Akl82OP11YiICBpPT+H6rFmzUoPjilRwjAJ5iNxAHQ21WWf3yBxNmzZVQobBolOkB3jNuIKSGy1YsIDoYLtxJoFMiZ7w9UK3CejcQL9VZYIs4sMz8QGSrqRSMhweYnqxZ+DAgZAUg7tv3z4Mi+IWz8ECDNm6devQN3igkBScQJmYPXt2PEqG4NChQ4SnkfJszaXWz+JyJnMRsxQcjIXxRWMULpnDFPgOkcY8qB57SRlFVSLJHycrU6aMcBDGQuthWT8Ll6xvQUFkeCTWNB1Jsho7duxDDz3kuVKeMH7Ie9OEq8w0mZ7rwbboedsnxWkFoWbTgiaqQrKZ7VIpXxB9TcmMr5NCKAokQ9B9soXxUiidw4cPozvYiAJSWReb4KwkJNydgaANBBh7qTtgga+++spoc5x7z549cK51fDlX1qnJezv169eHcLms8TAoVRjWOJWJqQsUKACDXD1rm4DvZcmShU4Z3+GHy6Awk4ImPcgEtNEnZZED9EQY58qVC1qn+/LaBsH5888/t27dWh5iolCwifUtQDx21qxZqgaXeUDrBBwCX16TNwoZ2ITARkw4nKZMPahRZs+eLRMvOBtiHNkLvdJlUyInjhhcURXnzp1Tn9XAM7du3UreRcchokX3SNFg9C6cmYxofQhpNVeePHlogKpmBPJ5lK5duxpzBndBCUIFwZkrjXnQKLhwPvXhB3pC6gjivT91WT9PzYxP4lWpkiLQROhB0ngadt8KykDqO+OzNhTH3Llz1VIPhyAg8UWZGFY+6vHOf61cuVLxIIUzUYojWt8hw/7Ca3gPHqPcxeR8Amia422zFEoKF5SkDd+Rk50s2UlISKC0CdoBggNGwPIoFDpIOMksKuyPw0D96jAKUpzBFGyeK7OZBPmcOXPoMjrOYyiBYS54k1LO453DatCggTycMUGyhUw1EsCc63CiFjvDzqmscwMCWfb48eN0jcHq16+fkDUBhcWMxhHZaFweoIAuJt/g8DfffLMs/xKsWLHCqDZkUaRtOAdtLnIermia2XQO9743QwbA4awLypwAx/Uz008+N62GcQLXXryvU6cO+VCtvIMLyPy4eEAXgafgOBoMPfXo0QMfFfaHXkeNGqVkFyVbp06drMuDPN73z1DlnMW5UhdDdlR8JANEExRJnUKoS22FKMiQIYN19YwgiBIs9VVboKDmaNOmDX30eNcwQGTTpk3Di9Dm1HrGyiAqKgp1TPIwXQEPyZs377Fjx2g5VytdujQeSJVXpUoVoprakAQgC8uJXgpJ4UQrfC3J9I+jR49epTUMvgADopQbNWpEkb5r1y64TCZGkfzGBUx0h9rT+iifIcYCePv8+fNJM/JSmcdbsnBlCF052IkTJ6RwTkNzpTKc3eNBSndSaxAz37YP49IRSKdwjVpxgm+hLwL9iqpSYSJSxBr8JRopkGXa9BsvJJ368iTjwkwyE8KQgoJ4zpcvH+lXLfejBnzOi1AbL3ig19asWSOdlXeZZB4gMTGRsRADYsxt27YRvfJmrq3RTO/tks+yZ8/Ov1iS37IcAuKAKKHIUHc6VVALNtG5kBTaUKxnrLfEx+jvsGHDbM2l9sq/cCjOSd0g7CYXlBfVQ/WxO1u4+v3B4ESB+19MSlsQjYSfLBahcIiJiUlxOYgVxiRJqYLcQ8SJceR7DZ4rX+KUY5xkVPI2EgmOPnny5G1eqF3IHHSl7dcu0wuMzoZlKP9lGebFixfp2uTJk+UY43c0HMqQAQMGIKgRazNnzpQHfUQ18jlde6nHO8shhYWpIMVcqDyp0EkbaoWZE3NJ8JpesoRnk5OTrZ+bCyHS8XdY0wvkkVHTpk27devmv94MDkhF69xWaoBuoiayfVHn+gACx7gkyzlkUVdsbGyPHj3kxRiP97l2dHS0y1+pchPz5s07cOBAit96cY6KFSuShyIiIkLds/9D86AbaNOmTVJSEvUCbIgeTNt5n3HjxlHrmdZXBw0kEnpn0qRJV2Nh+bWDRo0axcXFWZdt+cepU6eQfli7ZMmS6hMGsCo8aFxmfP3B/wR9QMBuWM/Nb0E6geZBNyCrZ5AM7du3t/2UaSoR3IcdbbFlyxbStdsGch1nz56Nj49PE6OR3qwfvLr+QNoI+mmsEdfmNJfmQTcgHzii0jx27Jj1JXYNDY3QQvOgS6hRo0aRIkUgQZeXj2hoaKQIzYMuITo6et26dVu3bg11QzQ0NMzQPOgS5LOAafjQTUNDI62geVBDQyPcoXlQQ0Mj3KF5UENDI9yheVBDQyPcoXlQQ0Mj3KF5UENDI9yheVBDQyPc8T8ML3J8/gMKCQAAAABJRU5ErkJggg==&quot; width=&quot;429&quot; height=&quot;51&quot;&gt;" style="whiteSpace=wrap;html=1;rounded=0;" vertex="1" parent="WIyWlLk6GJQsqaUBKTNV-1">
          <mxGeometry x="1712.5" y="1260" width="455" height="100" as="geometry" />
        </mxCell>
        <mxCell id="-vagqT4oPrXyImM88Zhv-211" value="" style="edgeStyle=orthogonalEdgeStyle;rounded=0;orthogonalLoop=1;jettySize=auto;html=1;" edge="1" parent="WIyWlLk6GJQsqaUBKTNV-1" source="-vagqT4oPrXyImM88Zhv-204" target="-vagqT4oPrXyImM88Zhv-210">
          <mxGeometry relative="1" as="geometry" />
        </mxCell>
        <mxCell id="-vagqT4oPrXyImM88Zhv-214" value="&lt;div&gt;*=b&lt;/div&gt;" style="edgeLabel;html=1;align=center;verticalAlign=middle;resizable=0;points=[];" vertex="1" connectable="0" parent="-vagqT4oPrXyImM88Zhv-211">
          <mxGeometry x="0.2177" y="-1" relative="1" as="geometry">
            <mxPoint x="19.79" y="-9.03" as="offset" />
          </mxGeometry>
        </mxCell>
        <mxCell id="-vagqT4oPrXyImM88Zhv-213" style="edgeStyle=orthogonalEdgeStyle;rounded=0;orthogonalLoop=1;jettySize=auto;html=1;" edge="1" parent="WIyWlLk6GJQsqaUBKTNV-1" source="-vagqT4oPrXyImM88Zhv-204" target="-vagqT4oPrXyImM88Zhv-212">
          <mxGeometry relative="1" as="geometry" />
        </mxCell>
        <mxCell id="-vagqT4oPrXyImM88Zhv-215" value="*=g" style="edgeLabel;html=1;align=center;verticalAlign=middle;resizable=0;points=[];" vertex="1" connectable="0" parent="-vagqT4oPrXyImM88Zhv-213">
          <mxGeometry x="-0.1331" relative="1" as="geometry">
            <mxPoint y="-10.03" as="offset" />
          </mxGeometry>
        </mxCell>
        <mxCell id="-vagqT4oPrXyImM88Zhv-204" value="&lt;div&gt;计算未修正传递率&lt;/div&gt;&lt;img src=&quot;data:image/png;base64,iVBORw0KGgoAAAANSUhEUgAAAJsAAAA1CAIAAADZFQ5FAAAMOElEQVR42u2bdWwU0RbGtxBcglugxS1IcC8ETaG4Fi/FnVIo7l6KtUB5SHGH4u5QimuA4A3FgmtweL/sfe9mMrLtlpbCdr4/Nrt37ty5c79zvnPOnVmnX79+WUw4EJxMRh0MJqOOBpNRR4PJqKPBZPR/uHDhwv79+319feN6Ir8Lk1HLs2fPJk2a9OHDh7Jly4aEhGTIkKF///6lSpWK63lFE/Gd0a9fv3bq1Cl37tzjxo3j53+sWL16df78+W2fSDfOqlmzpl2X69atm7e3d4ECBbTtCxYsiPSK2bJlc3d3t90tvjO6dOnSwMDA4ODgokWL8nPq1Kl79uw5fPiwODpkyJADBw6MHz/ezc1Nedb27dvDwsLwbNmtRIkShw4d+vHjx8+fPxMnTlypUqV27dppL3fv3r3JkycvXLhQ2ThjxgxoVvVkzHLlyiVKlEhJYZUqVVatWuXs7GzjjuI7o23atHn58iUs8v3z58/169cvXrz49OnTZYdatWqtWLEiS5YssuXFixdBQUEjRoxQjtO3b19cFrkWP0uXLo2tFClSRHtFzk2SJImnp6f4efz48Rs3bnTt2lXZ5+TJk3v37k2YMCFXr1Chgmw/c+aMn5/fhg0bbNxRfGe0cuXKFStWnDZtGt9v3rwJwbgLzpEnTx5aHj9+3LFjx3379ilPQf0+ffrUr18/ZWO9evWGDx/OUOInjNqQbnR+yZIl4vuAAQNatmxZvnx51SX4VNEsgD63bdsWZzW6o/jOKEvf1QqLIoguW7asYcOGJEp4Q2ho6OXLl8uUKcO6i3SpmxUlS5aUg7x796569ernzp0TP0eNGkV4njJliryEPCRbEPZUqVLxHSPAI1VHiZcIRq5cubTBlbjg4uLSqlUrozuK74wiYm/fvp0wYQLkvX79GkZZfSR0zpw5HB06dGjmzJnR0vPnz3NIrG/79u1Z1qxZs8pBOArHmAVh8unTpw0aNGjSpInFyr2Hh4ePj0+zZs2ojuAYZRbtXl5eWAxpNmdt2bJFNStIxYmLFSumnTDz5Co2qqz4zqjFmuaMHTtWuBHfr1+/3rp16xw5cnz//p2sZN68edBA8pIyZUrhylqfo8/z589Hjx6tHfzEiRNr166tU6dOtWrVhFNaFKKqNBQltJeQMDpF4g8xilkJ84w6mHrcFoWkIaRI69evt1gjX69evZycnBBbBHnx4sWUrbInXks81oY9kSpz44Q9lFySNHLkSMSW/Bkf7dGjx6ZNm1Q3PnfuXBlocWhsBR0WP5nP7du3idlG0/4TjA4ePJhUXpQHWuzevTtnzpyFChVStWOJjx49wntie3pGYAJv3rxh8hEREY0bN4YPElTqHHjq0KGDnDDG2qJFi4CAAGVSKg9Bp3C4gwcP1qhRQ7QjwhMnThRVqaur67Fjx1TXRf+lrpKdSToBJxJfURGjaUfOqAgt4vv79+9J81KnTp0sWTLZAU/SzcoEuH/igdEMWAuWCZvVFRmSOmISfWKdPYOZk8HiXh8/fqxatSoEUAvSzif6ycREH1Yfp8mXLx+LoCsqWrHhjpYvX540aVKL1b/HjBmjFLDu3bs3b95c0I818KlcHFwWwSAbN5p25IySJhBUWHehM1yD+Qkdx3yI9tRMlHG65549e5ZiTmQZWhC0MBeWhtFCQkK4iqrDqVOn8FFGUEpcnAOXRQalKtoLbhmOZSAkMcYaxHYE7cgVliF1mKxt3bp10mHu3r1LtbNt2zYb40fCKNU3mR5rKn6KpA6zgmY5P0JI4cKFdU+ntkOvjIonUdLNnj2bElurugKITMaMGW1oQJyA2+euoyEeHz58QK6CgoKUQgqdYoVZW7yFFExKGqUU36WXs54FCxa0vRqRMLp582Y+RS5use5XcQ3lbggSMXPmTKUIS5BZkLirgoQEtoK2NGrUSBqH0QTAypUrY5qU3wU+Svpqb7qnuxuM1O3YsQOeCGoPHz5UGjcShZIJ1aX+4btuRq1EJIySqikvjzWhA0qvZ4pGJrPTCjJ73RsTnxgdZlvKCt1BMIuBAwcePXo0QYIEMciHA8OOXPf+/ft4FSEzUjMRgLDw8HC5na0E5sYnVFHa84UcwYhR8vu6desSV1xcXLRHkaNIp/HvPheLHuxgdOvWrePHjx86dGjTpk2j0p/OiRIlIhvUPerv7x8aGipUXQJV0SZZ1atXZ6hKlSppBzEZ1cIORllWSDXandKiT58+hISePXvqHiUL4FO59wGdT5480Wo4xR+pPOlYzN65l5fX169fY3bMOIHMWwXsYJTUjpKZTCd58uSqQ9RkadOmVTUS1alcybZ1R4Okhg0b2k6LBOhGXRjj6e7p06djdsC4gqo2jSqjYmeEFJdEV3tU9xE8RTShVzfoPn/+3M3Nbdq0aSiqaCHoXrx4kaCrsgzcqGLFivLxiAojR47cvXu37ZkzsXglvFFllKKF0kW7snBJukSwJMNW7S8fOXIElaa20Y4WFhaGJu/atStTpkwW60ZgmjRp9u7dSxBVrf6tW7coyLRvEZgwQiSMUirJnVXSEGdnZ+r97Nmz4xyyj6+v76NHjyjOOnfurDz37t27pFFip1sFpJ+cKCQkRI6Ma6IBkJo+fXplT8onzIXOtl/F+Gtxzwp7X0eyvW9jG5H7qG4+KT2Ja7PoefPm/fbtW8qUKZUa++XLl0aNGvn5+WlfzsBBs2bNOmzYMNmCRF+6dAkZUPVctmzZ5cuXte3/BFi6QYMGYY4okPZoRETEyZMnOVSnTh3VoUOHDiGKlPKJEye296K/++xFbFB5e3uz6Not6YULFzK+FGpuAIYQatIlQqayICGFxgsZQfks9+PHj56entBv4yWMvxZki8QL8eBMt4MIUnxu27ZNuSkogLkjh0Z5pQ3EzNM0o52jFy9eeHh4kJuI3TLx2gemR+BUZUxz5szBTVVxms4nTpygPebXO/aBa3L7Ril6cHAwqka1hhEvWrRI5BNKoNVt27ZdvHix0Y63EWL9+SgzXrVqlZRNgiXGi6dqrVJ7S506dfL39/9HM1UKaB8fH6PaHe3Jnz8/eYaNEVA4igJlbIoK/sQT7/NW2FtQ4qC1a9fOmTNnbE8vNkAgxBZ37typezQ8PBzpCgwMtG2s1ALUirqppQ2Y7xkZApEgPTl69Cj5XePGjcXjkSieSxC5c+eO9sGwrB1kzmH0nBxcuXIFldLd0rEBk1F9QKd4+6RevXoXL17s0qVLkyZNoi6AZH+ERspo3aPIz4YNG/bv3297EPHSaFT+sqGEyag+Ro0a5eTkJPzpxo0b7dq1U+5w4WEbN26EkmbNmn369AnK3d3dlR4Mo1R0lC66gzPstWvXlHLKJfip3V9zc3MbOHCgXeWsyagOqLL69u0rKcSfpk6dum/fvnTp0sk+a9asIQkXe5BiU1OZqIu3EYxUmqQpffr0yt00sceifX5uexxdmIzqQLyqceDAAbEz4Ofnd/XqVVURNXz4cBcXF7nWlJUwJOtmLCBBggRGPkqF2rlzZ2JkpDPBUAjhJqO/i379+lFKijf/QO/evfEeqkOkOCgoSDQ2bdoUPYQbiMeJVZ6EhGIEunH0wYMHhGSK8rJly4oWaphbt24FBASoKjoRR42eUhjBZFQHZC5btmwhUpJkil0R1O/9+/dZsmQR73Sx1g0aNBDfxRvuqnw1LCwMWdZ9CZLCZvDgwaTQKVKksPx/c4Yy3dfXVzWIyHWVrh8VmIzq4PPnzxMnTkyVKhWu07Nnz+PHj//8+ROXlU+WYAUm1q5da7GGQEpPVFo5QkREhJeXl+pPbQKcSJxWPpSEOWQAX1ft4lKPogp79uyx6+VWk9HoYMqUKXAsihnV+7cSpD8ES1dXV1U7blesWDH5T1OLNeh++/YNqZd/jBFgZMT/b9wzcjyQrYwYMUL++dBifa5OOJw8ebLss3nz5uvXr8s/DguxFRpLlFWmtRjEnTt3EOpZs2bJRgpiT0/P+fPn2/tMzWTUPoiwKlIV8eYtfFDD4GQ1atRQeSSOSJ0qqsnt27eHhobS4eHDh6pMhwGR9yFDhijVlazq9evX0XiMaDIai3j16lWvXr18fHyEN+O1qVOnjsp2Af4KzcHBwdG4qMlo7AI/u3//vvIP4VHB7/zT0mTU0WAy6mgwGXU0mIw6GkxGHQ0mo44Gk1FHw38BVuv78TvcEg8AAAAASUVORK5CYII=&quot; width=&quot;155&quot; height=&quot;53&quot;&gt;" style="whiteSpace=wrap;html=1;rounded=0;" vertex="1" parent="WIyWlLk6GJQsqaUBKTNV-1">
          <mxGeometry x="1550" y="1440" width="170" height="80" as="geometry" />
        </mxCell>
        <mxCell id="-vagqT4oPrXyImM88Zhv-208" value="&lt;div&gt;测试裸适配器时*=b&lt;/div&gt;&lt;div&gt;测试手套\材料时*=g&lt;br&gt;&lt;/div&gt;" style="strokeWidth=2;html=1;shape=mxgraph.flowchart.annotation_2;align=left;labelPosition=right;pointerEvents=1;direction=west;" vertex="1" parent="WIyWlLk6GJQsqaUBKTNV-1">
          <mxGeometry x="2200" y="910" width="50" height="590" as="geometry" />
        </mxCell>
        <mxCell id="-vagqT4oPrXyImM88Zhv-217" style="edgeStyle=orthogonalEdgeStyle;rounded=0;orthogonalLoop=1;jettySize=auto;html=1;" edge="1" parent="WIyWlLk6GJQsqaUBKTNV-1" source="-vagqT4oPrXyImM88Zhv-210" target="-vagqT4oPrXyImM88Zhv-216">
          <mxGeometry relative="1" as="geometry" />
        </mxCell>
        <mxCell id="-vagqT4oPrXyImM88Zhv-210" value="裸适配器振动传递率" style="whiteSpace=wrap;html=1;rounded=0;" vertex="1" parent="WIyWlLk6GJQsqaUBKTNV-1">
          <mxGeometry x="1470" y="1620" width="120" height="60" as="geometry" />
        </mxCell>
        <mxCell id="-vagqT4oPrXyImM88Zhv-218" style="edgeStyle=orthogonalEdgeStyle;rounded=0;orthogonalLoop=1;jettySize=auto;html=1;" edge="1" parent="WIyWlLk6GJQsqaUBKTNV-1" source="-vagqT4oPrXyImM88Zhv-212" target="-vagqT4oPrXyImM88Zhv-216">
          <mxGeometry relative="1" as="geometry" />
        </mxCell>
        <mxCell id="-vagqT4oPrXyImM88Zhv-212" value="手套未修正振动传递率" style="whiteSpace=wrap;html=1;rounded=0;" vertex="1" parent="WIyWlLk6GJQsqaUBKTNV-1">
          <mxGeometry x="1690" y="1620" width="120" height="60" as="geometry" />
        </mxCell>
        <mxCell id="-vagqT4oPrXyImM88Zhv-216" value="&lt;div&gt;计算1/3倍频程传递率&lt;/div&gt;&lt;img src=&quot;data:image/png;base64,iVBORw0KGgoAAAANSUhEUgAAAHoAAAAxCAIAAACapCocAAAG6UlEQVR42u2aa0gUaxjHR7sI3UzhmHgNpA/txTDJSCopuhh+UGQvCilImkfFL5mGdXJ3LfpQapaEkZQfvOTOLEEqgmJEohEZmZcVvFCSkiWIWhDZRc+zM6s7szM7+25ndjy08/+w6uy8u8/85p3/+zzvo9fy8jImSSx5SbjFlIRbVEm4RZWEW1RJuEWVhFtUSbg5tLS05O3t/d/PYUvCzdCXL1+uXbsWGhqam5vLf6bBYFi/fn1RUdGGDRvQP/8Px202KBR6s91BNb6MqzlOXlxcTEpKKi4uPnz4MOMzNFo9YWaPe/jwYXt7e21trZeXF2I8fz5ug2wIV1uwE+qhIZ2c0HgRam7cFRUVHz58KCsrox+E8zUYPoTLTBqTCtfJmUNUKtXp06fhJiHG84fjXpENt6MzwIt37dplMpmioqJoh4G2Qe543KNHj+7evdvR0YEYh4Tbqo8fP4aEhICfrFu3jjZoxYkcGNDExIRSqfz8+TOin0i4rXr58mViYuL09DTjKHtyr9gT9dfXr183b948Ozvr7++PEoeE26re3t6EhISZmRn7YWYdt9OTgnnt6+s7Nze3fft2lDiEx+1qQvp7CayLYuMmNAoNQTmFXA9v/DUzExgYCGZCS+xYtFkfMz4+Hh0dvbCwgBiHkLhhaty+ffvt27eNjY3MiyUgS9VTF8cywZKSEvDNwsJCWKnEww20h3VkokL9xICDTCarqak5ePCg7Zaw1klCA3mK7QLq6uqMRmNra6tQuDkzV6vo6EZGRo4ePXr58uXMzEzI/2lnWVIpQo1b/M6g0GJGuycaAoBwoay4f//+iRMn3AGbjMAu4JVjcj0+pKOOVVdX9/X13bt3jzYMY84OBm2I/OTJk+fOnYuPjxcKt+U7h/XkLSbJy6jvZ04XSFdjY2MLCgry8/O5bpcM5/E/Uk+fPoXstbOzc9++fe4gzr4sxiwl9evXr5SUlNTU1OTkZIzTuKHiWUm+gVtlZeXk5GR5eblwZQ6tKiDBYRR5yx+0iZqTk9Pf39/T08P6YsKg0KwO4hdMcOpDxMFtnfBW67ZG9+3bt1u3bm3dujU3N45jmSRHUeeDPe7YsePs2bMuLTwueDdtnjM0Pz8fHBx8/fr1vLw8+nF7G5I7gd7d3X3o0KHXr18zCw030bZatuU3eErtnz3yWikDFFTouK0WzHaFBw8enDlz5v3796GhofaDEK2EFKQoAQEB6enpUEwLe5Fsre6DYHK13og7f/QEEjJux+AuXrwIU/v79+8cj5WjJ8KB9u7dC/fs8ePHnO/SDIBTzh6f/4GQcTsGl5aW9uTJE1gt2YOcVxdMnTp16tOnT+Ana43FXULF7dBKMAyKsdHR0bGxMdY7rlgJKZVK9erVq4mJCcEuDzlnEEROYSLi5gOXlZVFEAQsmKx3+KyEc6stLi7ux48fz58/5wzCY8yEkQPa68qVK1AZQgrl4+PDHuXK5MZ27969Z8+epqamtcbiLiHhplI6R02Q5ubmxMTEFy9e7N+/nzWK8x7R0lfa0YWFBchM9Hp9cXHxWmNxlxBw055hTuI/f/6MiIjQarWQn9iP47ESVk+loaEhIyMDEsrAwMC1xuIuCbNFdePGDahozWYzbR+Sz0qYm8YWQQF95MiRsLCw+vr6tSUCVtbV1XXnzh3+ZRZOGxgYOH/+POJONyVhcMMET05O3rhxI6yZ1iid0Lbfqrp69SqO48+ePfPz8xOQnUutYYxsV05PT8NjSmPtsDUMCWtBQUFLS8uWLVtExY2RfQ3wE5ikZWVlMpmMJ3G0WsmQetgk0+nkkLDDSvvmzRtYA4KCggRkjbnYGoanMyUlpa+vj76jyd8aLi8vh/jhVWzclHp7ezs6Kvr/aSLkatyIq7nTMsZSWVNTExISEh8f784cGaneysvLCw4OhiKZGSpfaxiKMrlcDuvNpk2bUOKQmmc2RUZGgpkcO3aMNshJaxgEaQL4OOK+sWfi5l5YfH19ocKC2Wo75Kw1DDpw4AA4ONTDKHF4Jm6u3AjDtm3b1tPTo1QqGcN4W8OgmJgYyE80Gg1KHB6NW4cZoKJY3dZWKBQ3b948fvw4fRR/axgUHh4OOZVdiedIHoxba9YZGf3TrKysnTt3Xrp0aWWU89YwpCWQhk1NTSHmgh6Bm6M1bDMTW2MHktG0tDR4tf4jlbPWMEbm6e/evauqqkKMxCNwc2i10mKWXKWlpYuLi1BzQVbK3xoGDQ4OZmdnt7W1If5PD+bJuDUG8zABxSJjqwxoQB0A1XlV1d+lSiVPa9hkMsG6euHCBZd2eDwVN6+Wl3Gtt5a/NQzcfqMuk3CLKgm3qJJwiyoJt6iScIsqCbeoknCLqn8B9L+321/krvMAAAAASUVORK5CYII=&quot; width=&quot;122&quot; height=&quot;49&quot;&gt;" style="whiteSpace=wrap;html=1;rounded=0;" vertex="1" parent="WIyWlLk6GJQsqaUBKTNV-1">
          <mxGeometry x="1570" y="1730" width="160" height="80" as="geometry" />
        </mxCell>
      </root>
    </mxGraphModel>
  </diagram>
</mxfile>
